<svg width="187" height="25" viewBox="0 0 187 25" fill="none" xmlns="http://www.w3.org/2000/svg">
<g clip-path="url(#clip0_486_4351)">
<path d="M41.1914 19.0671V1.48279H50.0264C53.9722 1.48279 56.1166 4.14187 56.1166 7.31562C56.1166 10.4894 53.9722 13.1484 50.0264 13.1484H45.7376V19.0671H41.1914ZM51.4846 7.31562C51.4846 6.11474 50.6269 5.42853 49.3402 5.42853H45.6518V9.20271H49.3402C50.6269 9.20271 51.4846 8.5165 51.4846 7.31562ZM64.5227 19.0671V17.7804C63.7507 18.7239 62.2068 19.3244 60.577 19.3244C58.6041 19.3244 56.2024 18.0377 56.2024 15.1213C56.2024 12.0333 58.6041 11.004 60.577 11.004C62.2925 11.004 63.7507 11.5187 64.5227 12.4622V10.9183C64.5227 9.80315 63.5792 9.11693 61.9494 9.11693C60.6628 9.11693 59.3761 9.6316 58.3468 10.4894L56.8886 7.91606C58.5183 6.54363 60.7485 5.94319 62.6356 5.94319C65.7236 5.94319 68.5542 7.05829 68.5542 11.004V19.0671H64.5227ZM64.5227 15.7218V14.6067C64.0938 14.0062 63.1503 13.7489 62.2925 13.7489C61.1774 13.7489 60.2339 14.2635 60.2339 15.2071C60.2339 16.2364 61.1774 16.6653 62.2925 16.6653C63.1503 16.6653 64.0938 16.408 64.5227 15.7218ZM70.5271 20.3537C70.7844 20.5253 71.2133 20.611 71.5564 20.611C72.5 20.611 73.1004 20.4395 73.272 19.9248L73.5293 19.2386L68.4685 6.37207H72.7573L75.5879 14.4351L78.5044 6.37207H82.7932L77.0462 20.9542C76.0168 23.6132 74.1297 24.2137 71.6422 24.2994C71.2991 24.2994 70.3556 24.2137 69.9267 24.1279L70.5271 20.3537ZM99.6055 19.0671V11.3471C99.6055 10.4036 99.0908 9.6316 97.8899 9.6316C96.7748 9.6316 96.0029 10.3178 95.574 10.8325V19.0671H91.5425V11.3471C91.5425 10.4036 91.1136 9.6316 89.8269 9.6316C88.7118 9.6316 88.0256 10.3178 87.5967 10.8325V19.0671H83.5652V6.2863H87.5967V7.83028C88.1114 7.05829 89.7411 5.94319 91.7998 5.94319C93.6011 5.94319 94.8878 6.71518 95.4024 8.17339C96.1744 7.05829 97.8042 5.94319 99.777 5.94319C102.093 5.94319 103.637 7.14406 103.637 9.80315V19.0671H99.6055ZM104.924 12.6338C104.924 8.94538 107.754 5.94319 111.7 5.94319C115.474 5.94319 118.219 8.68805 118.219 13.0627V13.9204H109.127C109.384 15.1213 110.499 16.1506 112.3 16.1506C113.158 16.1506 114.788 15.7218 115.474 15.0355L117.19 17.5231C115.903 18.6382 113.844 19.2386 111.872 19.2386C108.012 19.3244 104.924 16.7511 104.924 12.6338ZM111.7 9.11693C109.899 9.11693 109.213 10.4036 109.127 11.2614H114.359C114.273 10.4036 113.587 9.11693 111.7 9.11693ZM128.083 19.0671V11.6902C128.083 10.1463 127.226 9.54582 126.025 9.54582C124.824 9.54582 124.052 10.232 123.537 10.7467V19.0671H119.506V6.2863H123.537V7.83028C124.309 6.97251 125.767 5.94319 127.912 5.94319C130.828 5.94319 132.115 7.65873 132.115 9.9747V19.0671H128.083ZM134.946 15.636V9.88893H132.801V6.2863H134.946V2.85522H138.977V6.37207H141.55V9.88893H138.977V14.5209C138.977 15.2929 139.406 15.8075 140.092 15.8075C140.521 15.8075 140.95 15.636 141.122 15.4644L141.894 18.5524C141.379 19.0671 140.35 19.4102 138.891 19.4102C136.404 19.3244 134.946 18.0377 134.946 15.636ZM155.103 19.0671L152.701 11.1756L150.3 19.0671H145.925L142.151 6.37207H146.354L148.413 14.1778L150.9 6.37207H154.503L156.99 14.1778L159.049 6.37207H163.252L159.478 19.0671H155.103ZM171.401 19.0671V17.7804C170.629 18.7239 169.085 19.3244 167.455 19.3244C165.482 19.3244 163.08 18.0377 163.08 15.1213C163.08 12.0333 165.482 11.004 167.455 11.004C169.171 11.004 170.629 11.5187 171.401 12.4622V10.9183C171.401 9.80315 170.457 9.11693 168.827 9.11693C167.541 9.11693 166.254 9.6316 165.225 10.4894L163.767 7.91606C165.396 6.54363 167.627 5.94319 169.514 5.94319C172.602 5.94319 175.432 7.05829 175.432 11.004V19.0671H171.401ZM171.401 15.7218V14.6067C170.972 14.0062 170.028 13.7489 169.171 13.7489C168.055 13.7489 167.112 14.2635 167.112 15.2071C167.112 16.2364 168.055 16.6653 169.171 16.6653C170.028 16.6653 170.972 16.408 171.401 15.7218ZM177.577 19.0671V1.48279H181.608V19.0671H177.577ZM183.495 19.0671V1.48279H187.527V19.0671H183.495Z" fill="white"/>
<path d="M24.2083 19.0667L26.1812 13.7485H33.4722L35.4451 19.0667H24.2083ZM12.6284 19.0667L14.6013 13.7485H21.8923L23.8652 19.0667H12.6284ZM18.4612 12.7192L20.3483 7.401H27.6394L29.6122 12.7192H18.4612ZM6.70978 12.7192L8.68265 7.401H15.9737L17.8608 12.7192H6.70978ZM0.876953 19.0667L2.84982 13.7485H10.1409L12.1137 19.0667H0.876953Z" fill="#FCBF14"/>
<path d="M12.6289 6.45766L14.6018 1.05371H21.807L23.7799 6.45766H12.6289Z" fill="#FCBF14"/>
</g>
<defs>
<clipPath id="clip0_486_4351">
<rect width="187.508" height="24.1033" fill="white" transform="translate(0.447266 0.624756)"/>
</clipPath>
</defs>
</svg>
