<svg width="135" height="37" viewBox="0 0 135 37" fill="none" xmlns="http://www.w3.org/2000/svg">
<path d="M43.2443 7.9718C42.9674 7.9718 42.7321 8.17287 42.6888 8.44666L39.4828 28.778C39.4712 28.8523 39.4758 28.9282 39.4963 29.0005C39.5167 29.0728 39.5527 29.1399 39.6015 29.197C39.6504 29.2541 39.711 29.3 39.7793 29.3315C39.8476 29.3629 39.9219 29.3792 39.997 29.3792H43.7991C44.0756 29.3792 44.3113 29.1778 44.3546 28.9044L45.2963 22.9339C45.3393 22.6605 45.5749 22.4591 45.8519 22.4591H49.3086C53.3474 22.4591 56.7759 19.5122 57.4022 15.519C58.0336 11.4921 54.8876 7.98054 50.4288 7.9718H43.2443ZM46.9403 12.5105H49.7059C51.9829 12.5105 52.7244 13.854 52.4899 15.3398C52.2555 16.8287 51.1039 17.9255 48.9013 17.9255H46.0863L46.9403 12.5105ZM65.1349 13.8926C64.1749 13.8962 63.0702 14.0929 61.8301 14.6094C58.9853 15.7952 57.6191 18.2458 57.039 20.0323C57.039 20.0323 55.1924 25.483 59.3644 28.4776C59.3644 28.4776 63.2336 31.3605 67.5891 28.3L67.514 28.778C67.5024 28.8522 67.5069 28.928 67.5274 29.0003C67.5478 29.0726 67.5836 29.1396 67.6324 29.1967C67.6812 29.2538 67.7417 29.2997 67.8099 29.3312C67.8781 29.3627 67.9523 29.3791 68.0274 29.3792H71.6367C71.9137 29.3792 72.1489 29.1778 72.1922 28.9044L74.3877 14.9814C74.3994 14.9071 74.395 14.8312 74.3746 14.7588C74.3542 14.6864 74.3184 14.6193 74.2696 14.5621C74.2208 14.5049 74.1602 14.459 74.092 14.4274C74.0237 14.3959 73.9495 14.3795 73.8743 14.3794H70.265C69.988 14.3794 69.7524 14.5808 69.7095 14.8542L69.5914 15.6037C69.5914 15.6037 68.0155 13.8819 65.1349 13.8926ZM65.253 18.2903C65.6674 18.2903 66.0465 18.3475 66.3867 18.4568C67.944 18.9566 68.8269 20.4527 68.5714 22.0744C68.2563 24.0712 66.6187 25.5414 64.5186 25.5414C64.1046 25.5414 63.7255 25.4846 63.3849 25.3753C61.8281 24.8754 60.9395 23.3794 61.1951 21.7577C61.5102 19.7609 63.1529 18.2903 65.253 18.2903Z" fill="#003087"/>
<path d="M95.2189 7.9718C94.942 7.9718 94.7067 8.17287 94.6634 8.44666L91.4575 28.778C91.4458 28.8523 91.4504 28.9282 91.4709 29.0005C91.4914 29.0728 91.5273 29.1399 91.5761 29.197C91.625 29.2541 91.6857 29.3 91.7539 29.3315C91.8222 29.3629 91.8965 29.3792 91.9717 29.3792H95.7737C96.0502 29.3792 96.2859 29.1778 96.3292 28.9044L97.271 22.9339C97.3139 22.6605 97.5495 22.4591 97.8265 22.4591H101.283C105.322 22.4591 108.75 19.5122 109.376 15.519C110.008 11.4921 106.862 7.98054 102.403 7.9718H95.2189ZM98.9149 12.5105H101.681C103.957 12.5105 104.699 13.854 104.465 15.3398C104.23 16.8287 103.079 17.9255 100.876 17.9255H98.0609L98.9149 12.5105ZM117.109 13.8926C116.149 13.8962 115.044 14.0929 113.804 14.6094C110.959 15.7952 109.593 18.2458 109.013 20.0323C109.013 20.0323 107.167 25.483 111.339 28.4776C111.339 28.4776 115.208 31.3605 119.564 28.3L119.489 28.778C119.477 28.8523 119.482 28.9282 119.502 29.0005C119.523 29.0728 119.558 29.1399 119.607 29.197C119.656 29.2541 119.717 29.3 119.785 29.3315C119.853 29.3629 119.928 29.3792 120.003 29.3792H123.612C123.889 29.3792 124.124 29.1778 124.167 28.9044L126.363 14.9814C126.375 14.907 126.371 14.8311 126.35 14.7586C126.33 14.6862 126.294 14.6191 126.245 14.5618C126.196 14.5046 126.136 14.4587 126.067 14.4272C125.999 14.3957 125.925 14.3794 125.849 14.3794H122.24C121.963 14.3794 121.727 14.5808 121.684 14.8542L121.566 15.6037C121.566 15.6037 119.99 13.8819 117.109 13.8926ZM117.227 18.2903C117.642 18.2903 118.021 18.3475 118.361 18.4568C119.918 18.9566 120.801 20.4527 120.546 22.0744C120.231 24.0712 118.593 25.5414 116.493 25.5414C116.079 25.5414 115.7 25.4846 115.359 25.3753C113.802 24.8754 112.914 23.3794 113.169 21.7577C113.484 19.7609 115.127 18.2903 117.227 18.2903Z" fill="#0070E0"/>
<path d="M76.1004 14.3793C75.8143 14.3793 75.6108 14.6587 75.6982 14.9309L79.6552 27.2099L76.0773 32.9964C75.9036 33.2773 76.1055 33.6401 76.4357 33.6401H80.6645C80.7854 33.64 80.9043 33.6087 81.0096 33.5493C81.115 33.4899 81.2031 33.4043 81.2657 33.3008L92.317 15.0191C92.4866 14.7381 92.284 14.3789 91.9557 14.3789H87.7274C87.6052 14.379 87.4852 14.4109 87.3792 14.4715C87.2732 14.532 87.1847 14.6191 87.1225 14.7242L82.7725 22.0684L80.5644 14.7787C80.4925 14.5414 80.2735 14.3789 80.0259 14.3789L76.1004 14.3793Z" fill="#003087"/>
<path d="M130.464 7.9718C130.187 7.9718 129.952 8.17327 129.908 8.44666L126.702 28.7772C126.69 28.8515 126.694 28.9275 126.715 29C126.735 29.0724 126.771 29.1395 126.82 29.1967C126.869 29.254 126.93 29.2999 126.998 29.3314C127.066 29.3629 127.141 29.3792 127.216 29.3792H131.018C131.295 29.3792 131.53 29.1778 131.573 28.9044L134.779 8.57302C134.791 8.49882 134.787 8.42298 134.766 8.3507C134.746 8.27843 134.71 8.21143 134.661 8.15431C134.612 8.0972 134.552 8.05131 134.484 8.01981C134.415 7.9883 134.341 7.97193 134.266 7.9718H130.464Z" fill="#0070E0"/>
<path d="M11.547 7.9718C11.3021 7.972 11.0653 8.05954 10.8791 8.21868C10.693 8.37783 10.5696 8.59815 10.5314 8.84005L8.84375 19.5436C8.92243 19.0437 9.35316 18.6753 9.85941 18.6753H14.8047C19.7817 18.6753 24.0049 15.0446 24.7766 10.1243C24.834 9.75701 24.8666 9.38622 24.874 9.0145C23.6092 8.35129 22.1234 7.9718 20.4954 7.9718H11.547Z" fill="#001C64"/>
<path d="M24.8748 9.01526C24.8674 9.38698 24.8349 9.75777 24.7775 10.1251C24.0058 15.0453 19.7822 18.6761 14.8055 18.6761H9.86027C9.35442 18.6761 8.92329 19.044 8.84461 19.5443L7.29287 29.38L6.32092 35.5503C6.30195 35.6695 6.30906 35.7914 6.34178 35.9076C6.37449 36.0238 6.43205 36.1315 6.51043 36.2233C6.58882 36.3151 6.68619 36.3888 6.79582 36.4393C6.90546 36.4899 7.02475 36.516 7.14546 36.5159H12.5131C12.758 36.5157 12.9948 36.4282 13.181 36.269C13.3672 36.1099 13.4905 35.8896 13.5288 35.6477L14.9426 26.6803C14.9809 26.4382 15.1044 26.2178 15.2907 26.0586C15.477 25.8995 15.714 25.812 15.9591 25.812H19.1194C24.0964 25.812 28.3196 22.1813 29.0913 17.261C29.6393 13.769 27.8805 10.5912 24.8748 9.01526Z" fill="#0070E0"/>
<path d="M5.44908 0.83728C4.94323 0.83728 4.5121 1.20524 4.43342 1.70474L0.221304 28.4142C0.141433 28.9213 0.533249 29.3798 1.04665 29.3798H7.29288L8.84381 19.5442L10.5314 8.84067C10.5697 8.59877 10.693 8.37845 10.8792 8.21931C11.0654 8.06016 11.3022 7.97263 11.5471 7.97242H20.4954C22.1238 7.97242 23.6092 8.35231 24.874 9.01512C24.9607 4.53559 21.2643 0.83728 16.1824 0.83728H5.44908Z" fill="#003087"/>
</svg>
