<svg width="154" height="28" viewBox="0 0 154 28" fill="none" xmlns="http://www.w3.org/2000/svg">
<g clip-path="url(#clip0_502_4380)">
<path d="M22.0416 2.64453H1.53505C0.846397 2.64453 0.259766 3.23116 0.259766 3.94532V6.26634C0.259766 6.9805 0.846397 7.56713 1.53505 7.56713H22.0416C22.7558 7.56713 23.3169 6.9805 23.3424 6.26634V3.97083C23.3424 3.23116 22.7558 2.64453 22.0416 2.64453ZM22.0416 15.5249H1.53505C1.20348 15.5249 0.871903 15.6524 0.642351 15.9075C0.387294 16.1626 0.259766 16.4686 0.259766 16.8257V19.1467C0.259766 19.8609 0.846397 20.4475 1.53505 20.4475H22.0416C22.7558 20.4475 23.3169 19.8864 23.3424 19.1467V16.8257C23.3169 16.086 22.7558 15.5249 22.0416 15.5249ZM13.0891 21.9524H1.53505C1.20348 21.9524 0.871903 22.0799 0.642351 22.3349C0.4128 22.59 0.259766 22.8961 0.259766 23.2531V25.5742C0.259766 26.2883 0.846397 26.875 1.53505 26.875H13.0636C13.7778 26.875 14.3389 26.2883 14.3389 25.5997V23.2787C14.3644 22.5135 13.8033 21.9269 13.0891 21.9524ZM23.3424 9.07197H1.53505C1.20348 9.07197 0.871903 9.1995 0.642351 9.45456C0.4128 9.70961 0.259766 10.0157 0.259766 10.3728V12.6938C0.259766 13.4079 0.846397 13.9946 1.53505 13.9946H23.3169C24.0311 13.9946 24.5922 13.4079 24.5922 12.6938V10.3728C24.6177 9.6586 24.0311 9.09748 23.3424 9.07197Z" fill="#00C3F7"/>
<path d="M47.1895 7.84772C46.5518 7.18457 45.8121 6.67445 44.9705 6.31737C44.1288 5.96029 43.2361 5.78175 42.3179 5.78175C41.4252 5.75625 40.558 5.96029 39.7418 6.34288C39.2062 6.59794 38.7216 6.95502 38.3135 7.38861V6.98052C38.3135 6.77648 38.2369 6.57243 38.1094 6.4194C37.9819 6.26636 37.7778 6.16434 37.5483 6.16434H34.7172C34.5131 6.16434 34.3091 6.24086 34.1815 6.4194C34.0285 6.57243 33.952 6.77648 33.9775 6.98052V26.0588C33.9775 26.2628 34.054 26.4669 34.1815 26.6199C34.3346 26.773 34.5131 26.8495 34.7172 26.8495H37.6248C37.8289 26.8495 38.0074 26.773 38.1604 26.6199C38.3135 26.4924 38.4155 26.2884 38.39 26.0588V19.5293C38.7981 19.9884 39.3337 20.32 39.9203 20.5241C40.6855 20.8046 41.4762 20.9577 42.2924 20.9577C43.2106 20.9577 44.1288 20.7791 44.9705 20.422C45.8121 20.065 46.5773 19.5548 47.215 18.8917C47.8781 18.203 48.3882 17.3869 48.7453 16.4942C49.1534 15.4994 49.3319 14.4282 49.3064 13.357C49.3319 12.2857 49.1279 11.2145 48.7453 10.1942C48.3627 9.35255 47.8526 8.53637 47.1895 7.84772ZM44.5879 14.7598C44.4348 15.1679 44.2053 15.5249 43.8992 15.8565C43.3126 16.4942 42.4709 16.8512 41.6037 16.8512C41.1701 16.8512 40.7365 16.7747 40.3284 16.5707C39.9458 16.3921 39.5887 16.1626 39.2827 15.8565C38.9766 15.5504 38.7471 15.1679 38.594 14.7598C38.2625 13.8926 38.2625 12.9489 38.594 12.0817C38.7471 11.6736 39.0021 11.3165 39.2827 11.0104C39.5887 10.7044 39.9458 10.4493 40.3284 10.2708C40.7365 10.0922 41.1701 9.9902 41.6037 9.9902C42.0628 9.9902 42.4709 10.0667 42.9045 10.2708C43.2871 10.4493 43.6442 10.6789 43.9247 10.9849C44.2308 11.291 44.4348 11.6481 44.6134 12.0562C44.9194 12.9489 44.8939 13.8926 44.5879 14.7598ZM64.8904 6.18985H62.0083C61.8042 6.18985 61.6002 6.26636 61.4727 6.4194C61.3196 6.57243 61.2431 6.77648 61.2431 7.00603V7.36311C60.886 6.92951 60.4269 6.59794 59.9423 6.36839C59.1516 5.9858 58.2844 5.80726 57.4172 5.80726C55.5553 5.80726 53.7954 6.54693 52.4691 7.84772C51.7805 8.53637 51.2449 9.35255 50.8878 10.2453C50.4797 11.24 50.2756 12.3112 50.3011 13.408C50.2756 14.4792 50.4797 15.5504 50.8878 16.5707C51.2704 17.4634 51.7805 18.2796 52.4691 18.9682C53.7699 20.2945 55.5553 21.0342 57.3917 21.0342C58.2589 21.0597 59.1261 20.8556 59.9168 20.473C60.4014 20.218 60.886 19.8864 61.2431 19.4783V19.8609C61.2431 20.065 61.3196 20.269 61.4727 20.422C61.6257 20.5496 61.8042 20.6516 62.0083 20.6516H64.8904C65.0945 20.6516 65.2985 20.5751 65.426 20.422C65.5791 20.269 65.6556 20.065 65.6556 19.8609V7.03153C65.6556 6.82749 65.5791 6.62344 65.4515 6.47041C65.2985 6.29187 65.0945 6.18985 64.8904 6.18985ZM60.988 14.7598C60.835 15.1679 60.6055 15.5249 60.2994 15.8565C59.9933 16.1626 59.6617 16.4176 59.2792 16.5962C58.463 16.9788 57.5193 16.9788 56.7031 16.5962C56.3205 16.4176 55.9634 16.1626 55.6573 15.8565C55.3513 15.5504 55.1217 15.1679 54.9687 14.7598C54.6626 13.8926 54.6626 12.9489 54.9687 12.0817C55.1217 11.6736 55.3513 11.342 55.6573 11.0104C55.9634 10.7044 56.295 10.4493 56.7031 10.2708C57.5193 9.88817 58.463 9.88817 59.2537 10.2708C59.6362 10.4493 59.9933 10.6789 60.2739 10.9849C60.5544 11.291 60.784 11.6481 60.9625 12.0562C61.3196 12.9489 61.3196 13.8926 60.988 14.7598ZM93.6099 13.0254C93.2018 12.6683 92.7172 12.3622 92.207 12.1582C91.6714 11.9286 91.0848 11.7756 90.5237 11.6481L88.3302 11.2145C87.769 11.1124 87.361 10.9594 87.1569 10.7809C86.9784 10.6533 86.8508 10.4493 86.8508 10.2197C86.8508 9.9902 86.9784 9.78615 87.2589 9.60761C87.6415 9.40357 88.0496 9.30154 88.4832 9.32705C89.0443 9.32705 89.6055 9.45458 90.1156 9.65862C90.6257 9.88818 91.1103 10.1177 91.5694 10.4238C92.207 10.8319 92.7682 10.7554 93.1508 10.2963L94.1965 9.0975C94.4005 8.89345 94.5026 8.63839 94.5281 8.35783C94.5026 8.05176 94.3495 7.79671 94.12 7.59266C93.6864 7.21007 92.9722 6.80198 92.0285 6.39389C91.0848 5.9858 89.886 5.78175 88.4832 5.78175C87.616 5.75625 86.7743 5.88378 85.9581 6.13883C85.2695 6.36839 84.6063 6.69996 84.0197 7.13356C83.4841 7.54165 83.076 8.05176 82.7699 8.6639C82.4894 9.25053 82.3363 9.88817 82.3363 10.5258C82.3363 11.7246 82.6934 12.6938 83.4076 13.408C84.1217 14.1221 85.0654 14.6067 86.2387 14.8363L88.5342 15.3464C89.0188 15.4229 89.5289 15.5759 89.988 15.8055C90.2431 15.9075 90.3961 16.1626 90.3961 16.4431C90.3961 16.6982 90.2686 16.9278 89.988 17.1318C89.7075 17.3358 89.2484 17.4634 88.6362 17.4634C88.0241 17.4634 87.3865 17.3358 86.8253 17.0553C86.2897 16.8002 85.8051 16.4686 85.346 16.0861C85.142 15.933 84.9379 15.8055 84.6829 15.7035C84.4278 15.627 84.0962 15.7035 83.7646 15.984L82.5149 16.9278C82.1578 17.1828 81.9792 17.6164 82.0813 18.0245C82.1578 18.4581 82.4894 18.8662 83.127 19.3508C84.7084 20.422 86.5958 20.9832 88.5087 20.9322C89.4014 20.9322 90.2941 20.8301 91.1358 20.5751C91.8755 20.3455 92.5641 20.0139 93.1763 19.5548C93.7374 19.1467 94.1965 18.6111 94.5026 17.9735C94.8086 17.3614 94.9617 16.6982 94.9617 16.0095C94.9872 15.3974 94.8596 14.7853 94.6046 14.2241C94.3495 13.8161 94.0179 13.3825 93.6099 13.0254ZM106.21 16.5197C106.082 16.2901 105.853 16.1371 105.572 16.0861C105.317 16.0861 105.036 16.1626 104.832 16.3156C104.475 16.5452 104.067 16.6727 103.659 16.6982C103.532 16.6982 103.379 16.6727 103.251 16.6472C103.098 16.6217 102.97 16.5452 102.868 16.4431C102.741 16.3156 102.639 16.1626 102.562 16.0095C102.46 15.7545 102.409 15.4994 102.435 15.2444V10.0157H106.159C106.388 10.0157 106.592 9.91368 106.745 9.76065C106.898 9.60761 107 9.42907 107 9.19952V6.98052C107 6.75097 106.924 6.54693 106.745 6.4194C106.592 6.26636 106.388 6.18985 106.184 6.18985H102.435V2.61905C102.435 2.415 102.358 2.18545 102.205 2.05792C102.052 1.93039 101.874 1.85387 101.67 1.82837H98.762C98.558 1.82837 98.3539 1.90489 98.2009 2.05792C98.0478 2.21095 97.9458 2.415 97.9458 2.61905V6.18985H96.288C96.0839 6.18985 95.8799 6.26636 95.7268 6.4449C95.5993 6.59794 95.5228 6.80198 95.5228 7.00603V9.22503C95.5228 9.42907 95.5993 9.63312 95.7268 9.78615C95.8544 9.96469 96.0584 10.0412 96.288 10.0412H97.9458V16.2646C97.9203 17.0043 98.0734 17.7439 98.3794 18.4071C98.66 18.9682 99.0171 19.4528 99.5017 19.8609C99.9608 20.2435 100.496 20.5241 101.083 20.6771C101.67 20.8556 102.282 20.9577 102.894 20.9577C103.685 20.9577 104.501 20.8301 105.266 20.5751C105.98 20.3455 106.618 19.9374 107.128 19.4018C107.459 19.0702 107.485 18.5346 107.23 18.152L106.21 16.5197ZM121.972 6.18985H119.09C118.886 6.18985 118.707 6.26636 118.554 6.4194C118.401 6.57243 118.325 6.77648 118.325 7.00603V7.36311C117.968 6.92951 117.534 6.59794 117.024 6.36839C116.233 5.9858 115.366 5.80726 114.499 5.80726C112.637 5.80726 110.877 6.54693 109.551 7.84772C108.862 8.53637 108.327 9.35255 107.97 10.2453C107.561 11.24 107.357 12.3112 107.383 13.3825C107.357 14.4537 107.561 15.5249 107.97 16.5452C108.327 17.4379 108.888 18.254 109.551 18.9427C110.852 20.269 112.612 21.0087 114.474 21.0087C115.341 21.0342 116.208 20.8301 116.999 20.473C117.509 20.218 117.968 19.8864 118.325 19.4783V19.8609C118.325 20.065 118.401 20.269 118.554 20.3965C118.707 20.5496 118.886 20.6261 119.09 20.6261H121.972C122.406 20.6261 122.737 20.2945 122.737 19.8609V7.03153C122.737 6.82749 122.661 6.62344 122.533 6.47041C122.406 6.29187 122.202 6.18985 121.972 6.18985ZM118.095 14.7598C117.942 15.1679 117.713 15.5249 117.407 15.8565C117.101 16.1626 116.769 16.4176 116.386 16.5962C115.978 16.7747 115.545 16.8767 115.086 16.8767C114.627 16.8767 114.218 16.7747 113.81 16.5962C113.428 16.4176 113.071 16.1626 112.765 15.8565C112.459 15.5504 112.229 15.1679 112.101 14.7598C111.795 13.8926 111.795 12.9489 112.101 12.0817C112.255 11.6736 112.484 11.3165 112.765 11.0104C113.071 10.7044 113.428 10.4493 113.81 10.2708C114.218 10.0922 114.652 9.9902 115.086 9.9902C115.519 9.9902 115.953 10.0667 116.386 10.2708C116.769 10.4493 117.101 10.6789 117.407 10.9849C117.713 11.291 117.942 11.6481 118.095 12.0562C118.427 12.9234 118.427 13.8926 118.095 14.7598ZM137.786 16.3156L136.128 15.0403C135.822 14.7853 135.516 14.7088 135.261 14.8108C135.031 14.9128 134.827 15.0658 134.649 15.2444C134.291 15.678 133.858 16.0606 133.399 16.3921C132.889 16.6727 132.353 16.8257 131.792 16.7747C131.129 16.7747 130.517 16.5962 129.981 16.2136C129.445 15.831 129.037 15.3209 128.833 14.6832C128.68 14.2497 128.604 13.8161 128.604 13.3825C128.604 12.9234 128.68 12.4898 128.833 12.0307C128.986 11.6226 129.19 11.2655 129.496 10.9594C129.802 10.6533 130.134 10.3983 130.517 10.2453C130.925 10.0667 131.358 9.96469 131.817 9.96469C132.379 9.93919 132.94 10.0922 133.424 10.3728C133.909 10.6789 134.317 11.0614 134.674 11.5205C134.827 11.6991 135.031 11.8521 135.261 11.9541C135.516 12.0562 135.822 11.9796 136.128 11.7246L137.786 10.4748C137.99 10.3473 138.143 10.1432 138.219 9.91368C138.321 9.65862 138.296 9.37806 138.143 9.14851C137.505 8.15379 136.638 7.3376 135.592 6.75097C134.496 6.13883 133.195 5.80726 131.741 5.80726C130.721 5.80726 129.7 6.01131 128.731 6.39389C127.813 6.77648 126.997 7.3121 126.308 8.00075C125.62 8.68941 125.058 9.50559 124.676 10.4238C123.885 12.3367 123.885 14.4792 124.676 16.3921C125.058 17.2848 125.594 18.1265 126.308 18.7897C127.762 20.218 129.7 20.9832 131.741 20.9832C133.195 20.9832 134.496 20.6516 135.592 20.0395C136.638 19.4528 137.531 18.6366 138.168 17.6164C138.296 17.3869 138.321 17.1063 138.245 16.8767C138.143 16.6727 137.99 16.4686 137.786 16.3156ZM153.14 19.2998L148.575 12.6173L152.477 7.46513C152.656 7.23558 152.732 6.90401 152.63 6.62344C152.554 6.4194 152.375 6.21535 151.89 6.21535H148.804C148.626 6.21535 148.447 6.26636 148.294 6.34288C148.09 6.4449 147.937 6.59794 147.835 6.77648L144.723 11.138H143.984V0.833646C143.984 0.6296 143.907 0.425554 143.754 0.27252C143.601 0.119486 143.423 0.0429688 143.218 0.0429688H140.336C140.132 0.0429688 139.928 0.119486 139.775 0.27252C139.622 0.425554 139.546 0.604094 139.546 0.833646V19.8354C139.546 20.065 139.622 20.2435 139.775 20.3965C139.928 20.5496 140.132 20.6261 140.336 20.6261H143.218C143.423 20.6261 143.627 20.5496 143.754 20.3965C143.907 20.2435 143.984 20.0394 143.984 19.8354V14.8108H144.8L148.192 20.0139C148.396 20.3965 148.779 20.6261 149.187 20.6261H152.426C152.911 20.6261 153.115 20.3965 153.217 20.1925C153.344 19.8864 153.319 19.5548 153.14 19.2998ZM81.2651 6.18985H78.0259C77.7708 6.18985 77.5412 6.26636 77.3627 6.4449C77.2097 6.59794 77.1077 6.77648 77.0566 6.98052L74.6591 15.8565H74.0725L71.5219 6.98052C71.4709 6.80198 71.3944 6.62344 71.2668 6.4449C71.1138 6.26636 70.9098 6.16434 70.6802 6.16434H67.39C66.9564 6.16434 66.7013 6.29187 66.5738 6.59794C66.4973 6.853 66.4973 7.13356 66.5738 7.38861L70.6547 19.8864C70.7312 20.065 70.8077 20.269 70.9608 20.3965C71.1138 20.5496 71.3434 20.6261 71.5729 20.6261H73.3073L73.1543 21.0342L72.7717 22.1819C72.6442 22.539 72.4401 22.8451 72.134 23.0746C71.8535 23.2787 71.5219 23.4062 71.1648 23.3807C70.8588 23.3807 70.5782 23.3042 70.2976 23.2022C70.0171 23.0746 69.762 22.9216 69.5325 22.7431C69.3284 22.59 69.0734 22.5135 68.7928 22.5135H68.7673C68.4612 22.539 68.1807 22.692 68.0276 22.9726L67.0074 24.4774C66.5993 25.1406 66.8289 25.5487 67.0839 25.7782C67.645 26.2884 68.2827 26.6709 68.9968 26.9005C69.7875 27.1811 70.6037 27.3086 71.4199 27.3086C72.8992 27.3086 74.1235 26.9005 75.0672 26.1098C76.0364 25.2426 76.7761 24.1204 77.1332 22.8451L81.8772 7.38861C81.9792 7.10805 82.0048 6.82749 81.9027 6.57243C81.8772 6.39389 81.6987 6.18985 81.2651 6.18985Z" fill="white"/>
</g>
<defs>
<clipPath id="clip0_502_4380">
<rect width="153.037" height="27.2656" fill="white" transform="translate(0.259766 0.0432129)"/>
</clipPath>
</defs>
</svg>
