<svg width="62" height="28" viewBox="0 0 62 28" fill="none" xmlns="http://www.w3.org/2000/svg">
<path fill-rule="evenodd" clip-rule="evenodd" d="M54.3348 15.0152C54.3348 11.6786 52.7186 9.04578 49.6294 9.04578C46.5273 9.04578 44.6504 11.6786 44.6504 14.9891C44.6504 18.9123 46.8662 20.8934 50.0465 20.8934C51.5976 20.8934 52.7707 20.5415 53.657 20.0462V17.4395C52.7707 17.8826 51.754 18.1563 50.4636 18.1563C49.1993 18.1563 48.0784 17.7132 47.935 16.1752H54.3087C54.3087 16.0058 54.3348 15.328 54.3348 15.0152ZM47.8959 13.777C47.8959 12.3042 48.7953 11.6916 49.6164 11.6916C50.4115 11.6916 51.2587 12.3042 51.2587 13.777H47.8959Z" fill="#635BFF"/>
<path fill-rule="evenodd" clip-rule="evenodd" d="M39.619 9.04578C38.3417 9.04578 37.5205 9.64533 37.0643 10.0624L36.8949 9.25432H34.0273V24.4516L37.2859 23.7608L37.2989 20.0723C37.7682 20.4112 38.459 20.8934 39.606 20.8934C41.9391 20.8934 44.0637 19.0166 44.0637 14.8849C44.0506 11.1051 41.9 9.04578 39.619 9.04578ZM38.837 18.026C38.0679 18.026 37.6117 17.7523 37.2989 17.4134L37.2859 12.5779C37.6248 12.1999 38.094 11.9393 38.837 11.9393C40.0231 11.9393 40.8442 13.2687 40.8442 14.9761C40.8442 16.7226 40.0361 18.026 38.837 18.026Z" fill="#635BFF"/>
<path fill-rule="evenodd" clip-rule="evenodd" d="M29.5449 8.27679L32.8165 7.57297V4.92712L29.5449 5.61791V8.27679Z" fill="#635BFF"/>
<path d="M32.8165 9.26733H29.5449V20.6718H32.8165V9.26733Z" fill="#635BFF"/>
<path fill-rule="evenodd" clip-rule="evenodd" d="M26.0376 10.2319L25.8291 9.26741H23.0137V20.6719H26.2722V12.9429C27.0412 11.9393 28.3447 12.1218 28.7487 12.2652V9.26741C28.3316 9.11101 26.8066 8.82427 26.0376 10.2319Z" fill="#635BFF"/>
<path fill-rule="evenodd" clip-rule="evenodd" d="M19.5215 6.43909L16.3412 7.11684L16.3281 17.5568C16.3281 19.4858 17.7749 20.9065 19.704 20.9065C20.7728 20.9065 21.5548 20.711 21.985 20.4764V17.8305C21.5679 18 19.5085 18.5995 19.5085 16.6705V12.0436H21.985V9.2674H19.5085L19.5215 6.43909Z" fill="#635BFF"/>
<path fill-rule="evenodd" clip-rule="evenodd" d="M10.7098 12.5779C10.7098 12.0696 11.1269 11.8741 11.8177 11.8741C12.8083 11.8741 14.0595 12.1739 15.0501 12.7082V9.64533C13.9683 9.21521 12.8995 9.04578 11.8177 9.04578C9.17173 9.04578 7.41211 10.4273 7.41211 12.7343C7.41211 16.3316 12.3651 15.7581 12.3651 17.3091C12.3651 17.9087 11.8437 18.1042 11.1138 18.1042C10.032 18.1042 8.65036 17.6611 7.55549 17.0615V20.1635C8.76766 20.6849 9.99288 20.9065 11.1138 20.9065C13.8249 20.9065 15.6888 19.564 15.6888 17.2309C15.6758 13.3469 10.7098 14.0377 10.7098 12.5779Z" fill="#635BFF"/>
</svg>
