<svg width="87" height="29" viewBox="0 0 87 29" fill="none" xmlns="http://www.w3.org/2000/svg">
<g clip-path="url(#clip0_502_4373)">
<path d="M37.7292 28.2116H30.6895L35.0926 1.22827H42.132L37.7292 28.2116Z" fill="#00579F"/>
<path d="M63.2502 1.88817C61.8616 1.3422 59.6593 0.73938 56.9361 0.73938C49.9841 0.73938 45.0885 4.41351 45.0585 9.66642C45.0008 13.542 48.5636 15.6946 51.2283 16.9868C53.9518 18.3073 54.8777 19.1692 54.8777 20.3462C54.85 22.1539 52.6769 22.9872 50.65 22.9872C47.8395 22.9872 46.3335 22.5575 44.0449 21.5518L43.1179 21.1207L42.1328 27.1779C43.7839 27.9234 46.8259 28.585 49.9841 28.614C57.3707 28.614 62.1796 24.9967 62.2366 19.3989C62.2647 16.3272 60.3834 13.9735 56.3274 12.0502C53.8652 10.8156 52.3573 9.98309 52.3573 8.71984C52.3862 7.57144 53.6327 6.39518 56.4121 6.39518C58.7007 6.33757 60.3822 6.88277 61.656 7.42836L62.2928 7.71489L63.2502 1.88817Z" fill="#00579F"/>
<path d="M72.6065 18.6524C73.1863 17.1022 75.4171 11.1026 75.4171 11.1026C75.3878 11.1603 75.9957 9.52388 76.3433 8.51931L76.8353 10.8444C76.8353 10.8444 78.1684 17.3033 78.4579 18.6524C77.3577 18.6524 73.997 18.6524 72.6065 18.6524ZM81.2962 1.22827H75.8509C74.1718 1.22827 72.896 1.71587 72.1715 3.46709L61.7148 28.2112H69.1014C69.1014 28.2112 70.3175 24.8808 70.5789 24.1636C71.3893 24.1636 78.5749 24.1636 79.6174 24.1636C79.8195 25.1109 80.4574 28.2112 80.4574 28.2112H86.9755L81.2962 1.22827Z" fill="#00579F"/>
<path d="M24.8102 1.22827L17.916 19.6283L17.1626 15.8966C15.888 11.5906 11.8906 6.9123 7.42969 4.58612L13.7446 28.183H21.1889L32.2542 1.22827H24.8102Z" fill="#00579F"/>
<path d="M11.5144 1.22876H0.188138L0.0722656 1.77397C8.90748 4.01316 14.7589 9.41067 17.1629 15.8982L14.7007 3.49696C14.2954 1.77358 13.0496 1.28561 11.5144 1.22876Z" fill="#FAA61A"/>
</g>
<defs>
<clipPath id="clip0_502_4373">
<rect width="86.9031" height="27.8746" fill="white" transform="translate(0.0722656 0.738892)"/>
</clipPath>
</defs>
</svg>
