<svg width="171" height="39" viewBox="0 0 171 39" fill="none" xmlns="http://www.w3.org/2000/svg">
<path d="M20.5468 2.80811C15.8762 2.80811 15.29 2.82787 13.4556 2.90866C11.6248 2.98979 10.3751 3.27029 9.28158 3.68185C8.15047 4.10693 7.19098 4.67556 6.23508 5.60097C5.27846 6.52603 4.69087 7.45456 4.25018 8.54882C3.82382 9.60737 3.53361 10.8171 3.4512 12.5882C3.36915 14.3634 3.34766 14.931 3.34766 19.4509C3.34766 23.9708 3.36844 24.5363 3.45156 26.3115C3.53576 28.0833 3.82561 29.2926 4.25054 30.3508C4.69015 31.4455 5.27774 32.374 6.234 33.299C7.18955 34.2248 8.14904 34.7948 9.27943 35.2199C10.3736 35.6315 11.6237 35.912 13.4542 35.9931C15.2886 36.0739 15.8744 36.0936 20.5446 36.0936C25.2156 36.0936 25.8 36.0739 27.6344 35.9931C29.4652 35.912 30.7164 35.6315 31.8106 35.2199C32.9413 34.7948 33.8994 34.2248 34.8549 33.299C35.8115 32.374 36.3991 31.4455 36.8398 30.3512C37.2626 29.2926 37.5528 28.0829 37.6388 26.3119C37.7212 24.5366 37.7427 23.9708 37.7427 19.4509C37.7427 14.931 37.7212 14.3637 37.6388 12.5885C37.5528 10.8167 37.2626 9.60737 36.8398 8.54917C36.3991 7.45456 35.8115 6.52603 34.8549 5.60097C33.8983 4.67522 32.9417 4.10659 31.8095 3.68185C30.7131 3.27029 29.4627 2.98979 27.6319 2.90866C25.7975 2.82787 25.2135 2.80811 20.5414 2.80811H20.5468ZM19.004 5.80727C19.4619 5.80658 19.9728 5.80727 20.5468 5.80727C25.1386 5.80727 25.6828 5.82322 27.4961 5.90297C29.1729 5.97717 30.0829 6.2483 30.6891 6.4761C31.4917 6.77775 32.0639 7.13834 32.6654 7.72084C33.2674 8.30334 33.64 8.8581 33.9524 9.63476C34.1878 10.2207 34.4683 11.1014 34.5446 12.7241C34.6271 14.4785 34.645 15.0055 34.645 19.4471C34.645 23.8886 34.6271 24.4156 34.5446 26.17C34.468 27.7927 34.1878 28.6734 33.9524 29.2594C33.6407 30.036 33.2674 30.589 32.6654 31.1712C32.0635 31.7537 31.4921 32.1143 30.6891 32.4159C30.0836 32.6448 29.1729 32.9152 27.4961 32.9894C25.6832 33.0692 25.1386 33.0865 20.5468 33.0865C15.9546 33.0865 15.4104 33.0692 13.5975 32.9894C11.9207 32.9145 11.0107 32.6434 10.4041 32.4156C9.60153 32.1139 9.02827 31.7533 8.42635 31.1708C7.82443 30.5884 7.45182 30.035 7.13939 29.258C6.904 28.672 6.62346 27.7913 6.54715 26.1687C6.46474 24.4142 6.44826 23.8872 6.44826 19.4429C6.44826 14.9986 6.46474 14.4743 6.54715 12.7199C6.62382 11.0972 6.904 10.2166 7.13939 9.62991C7.4511 8.85324 7.82443 8.29848 8.42635 7.71599C9.02827 7.13349 9.60153 6.7729 10.4041 6.47055C11.0103 6.24172 11.9207 5.97127 13.5975 5.89673C15.184 5.82738 15.7988 5.80658 19.004 5.80311V5.80727ZM29.7268 8.57066C28.5874 8.57066 27.6631 9.46417 27.6631 10.5671C27.6631 11.6697 28.5874 12.5642 29.7268 12.5642C30.8661 12.5642 31.7905 11.6697 31.7905 10.5671C31.7905 9.46452 30.8661 8.56997 29.7268 8.56997V8.57066ZM20.5468 10.9041C15.6695 10.9041 11.7151 14.7309 11.7151 19.4509C11.7151 24.1708 15.6695 27.9959 20.5468 27.9959C25.4241 27.9959 29.3771 24.1708 29.3771 19.4509C29.3771 14.7309 25.4241 10.9041 20.5468 10.9041ZM20.5468 13.9033C23.7126 13.9033 26.2794 16.3869 26.2794 19.4509C26.2794 22.5145 23.7126 24.9985 20.5468 24.9985C17.3806 24.9985 14.8142 22.5145 14.8142 19.4509C14.8142 16.3869 17.3806 13.9033 20.5468 13.9033Z" fill="#94979E"/>
<g clip-path="url(#clip0_490_1347)">
<path d="M59.0995 5.23348C56.6902 6.24133 54.0315 9.10168 53.1964 12.6819C52.131 17.222 56.5559 19.1417 56.911 18.5082C57.3333 17.7691 56.1143 17.5196 55.8648 15.1583C55.548 12.1252 56.9686 8.72734 58.7443 7.23957C59.0707 6.96122 59.0611 7.34516 59.0611 8.06504C59.0611 9.34164 58.9939 20.7927 58.9939 23.1827C58.9939 26.4174 58.8595 27.4348 58.6195 28.4523C58.3796 29.4793 57.986 30.1704 58.2836 30.4296C58.6099 30.7271 60.0305 30.0168 60.8464 28.8746C61.8254 27.502 62.171 25.8607 62.2286 24.0753C62.3054 21.9253 62.2958 18.5082 62.3054 16.5597C62.3054 14.7744 62.3342 9.54321 62.2766 6.3949C62.2574 5.61742 60.1169 4.81115 59.0995 5.23348ZM144.824 20.3703C144.747 22.0501 144.373 23.3651 143.912 24.2961C143.019 26.091 141.157 26.6477 140.37 24.0658C139.938 22.6644 139.919 20.3127 140.226 18.345C140.543 16.3486 141.416 14.832 142.875 14.976C144.315 15.1103 144.977 16.9533 144.824 20.3703ZM120.664 30.8039C120.645 33.5971 120.204 36.0447 119.263 36.755C117.929 37.7628 116.124 37.0045 116.499 34.9697C116.825 33.1651 118.389 31.3222 120.664 29.0762C120.664 29.0762 120.674 29.5849 120.664 30.8039ZM120.3 20.3607C120.223 21.8965 119.82 23.4322 119.388 24.2961C118.495 26.091 116.623 26.6477 115.846 24.0658C115.318 22.2996 115.443 20.0152 115.702 18.5754C116.038 16.7037 116.863 14.976 118.351 14.976C119.791 14.976 120.501 16.5597 120.3 20.3607ZM106.305 20.3319C106.219 21.9541 105.902 23.3075 105.393 24.2961C104.472 26.0814 102.657 26.6477 101.851 24.0658C101.275 22.2132 101.467 19.6792 101.707 18.3066C102.062 16.2718 102.955 14.8416 104.356 14.976C105.787 15.1199 106.487 16.9533 106.305 20.3319ZM170.442 22.2228C170.087 22.2228 169.933 22.5876 169.799 23.1923C169.338 25.304 168.858 25.7839 168.234 25.7839C167.543 25.7839 166.919 24.7376 166.756 22.6452C166.632 20.9942 166.651 17.9707 166.814 14.9472C166.843 14.3233 166.68 13.7186 165.009 13.1139C164.289 12.8547 163.253 12.4708 162.735 13.7186C161.276 17.2508 160.7 20.0536 160.565 21.1862C160.556 21.2438 160.488 21.2534 160.469 21.119C160.383 20.2072 160.191 18.5466 160.172 15.072C160.172 14.3905 160.028 13.8145 159.269 13.3442C158.78 13.0371 157.311 12.49 156.774 13.1427C156.313 13.6706 155.776 15.0911 155.229 16.7805C154.777 18.1531 154.461 19.0745 154.461 19.0745C154.461 19.0745 154.47 15.3791 154.47 13.9777C154.47 13.4498 154.105 13.277 154 13.2386C153.51 13.0947 152.541 12.8547 152.128 12.8547C151.619 12.8547 151.495 13.1427 151.495 13.5554C151.495 13.613 151.418 18.4218 151.418 21.7909C151.418 21.9349 151.418 22.0981 151.418 22.2708C151.14 23.8162 150.228 25.9183 149.229 25.9183C148.241 25.9183 147.77 25.0352 147.77 21.0326C147.77 18.6906 147.838 17.6731 147.876 15.9838C147.895 15.0048 147.934 14.2561 147.934 14.0929C147.924 13.5746 147.022 13.3058 146.609 13.2098C146.187 13.1139 145.822 13.0755 145.534 13.0947C145.131 13.1139 144.843 13.3826 144.843 13.7474C144.843 13.9393 144.843 14.3137 144.843 14.3137C144.325 13.4978 143.48 12.9219 142.923 12.7587C141.426 12.3076 139.852 12.7107 138.671 14.3617C137.73 15.6767 137.164 17.1644 136.943 19.3049C136.78 20.8694 136.838 22.4532 137.126 23.797C136.78 25.3136 136.127 25.9279 135.417 25.9279C134.381 25.9279 133.632 24.2385 133.718 21.3302C133.776 19.4105 134.16 18.0667 134.582 16.1182C134.764 15.2927 134.611 14.8512 134.256 14.4385C133.92 14.0545 133.21 13.8625 132.182 14.1025C131.453 14.2753 130.407 14.4576 129.457 14.6016C129.457 14.6016 129.514 14.3713 129.562 13.9681C129.812 11.8469 127.498 12.0196 126.769 12.6915C126.327 13.0947 126.03 13.5746 125.915 14.4289C125.732 15.7918 126.846 16.4349 126.846 16.4349C126.481 18.1051 125.588 20.2839 124.667 21.8581C124.177 22.7028 123.793 23.3267 123.304 23.9986C123.304 23.749 123.304 23.4994 123.304 23.2595C123.294 19.7464 123.342 16.9917 123.361 15.9934C123.381 15.0144 123.419 14.2849 123.419 14.1217C123.409 13.7378 123.189 13.5938 122.728 13.4114C122.315 13.2482 121.835 13.1427 121.336 13.1043C120.703 13.0275 120.319 13.3634 120.328 13.757C120.328 13.8337 120.328 14.2945 120.328 14.2945C119.81 13.4786 118.965 12.9027 118.409 12.7395C116.911 12.298 115.337 12.6915 114.156 14.3425C113.216 15.6575 112.602 17.5004 112.429 19.2665C112.266 20.9174 112.294 22.3092 112.515 23.4898C112.275 24.6705 111.594 25.9087 110.816 25.9087C109.828 25.9087 109.261 25.0256 109.261 21.023C109.261 18.681 109.328 17.6635 109.367 15.9742C109.386 14.9952 109.424 14.2465 109.424 14.0833C109.415 13.565 108.513 13.2962 108.1 13.2002C107.658 13.0947 107.284 13.0659 106.996 13.0851C106.612 13.1139 106.343 13.4594 106.343 13.709V14.3041C105.825 13.4882 104.98 12.9123 104.424 12.7491C102.926 12.3076 101.362 12.7011 100.171 14.3521C99.394 15.4271 98.7701 16.6173 98.4437 19.2569C98.3478 20.0152 98.3094 20.7351 98.319 21.3974C98.0118 23.2883 96.6392 25.4767 95.5258 25.4767C94.8731 25.4767 94.2492 24.2097 94.2492 21.503C94.2492 17.8939 94.47 12.7683 94.5084 12.2692C94.5084 12.2692 95.9193 12.25 96.1977 12.2404C96.8984 12.2308 97.5415 12.25 98.4821 12.202C98.9525 12.1828 99.4036 10.4839 98.9237 10.2823C98.7029 10.1863 97.1479 10.0999 96.524 10.0903C96.0057 10.0807 94.5563 9.97515 94.5563 9.97515C94.5563 9.97515 94.6907 6.56768 94.7195 6.21253C94.7483 5.91498 94.3548 5.7614 94.134 5.66542C93.5965 5.43505 93.107 5.32947 92.5311 5.20469C91.7344 5.04151 91.3792 5.20469 91.3121 5.86699C91.2065 6.88443 91.1489 9.85996 91.1489 9.85996C90.5634 9.85996 88.5765 9.74478 88.0006 9.74478C87.4631 9.74478 86.8775 12.0676 87.6262 12.0964C88.4901 12.1252 89.9875 12.154 90.9761 12.1924C90.9761 12.1924 90.9281 17.414 90.9281 19.0169C90.9281 19.1897 90.9281 19.3529 90.9281 19.5161C90.381 22.3668 88.4517 23.9026 88.4517 23.9026C88.8644 22.0213 88.0198 20.6007 86.4936 19.4009C85.9369 18.9593 84.8235 18.1243 83.5853 17.2028C83.5853 17.2028 84.3051 16.4925 84.9387 15.072C85.3898 14.0641 85.409 12.9123 84.3051 12.6531C82.4814 12.2308 80.9649 13.5746 80.5233 15.0048C80.1778 16.1182 80.3602 16.9437 81.0417 17.7979C81.0896 17.8555 81.1472 17.9227 81.2048 17.9899C80.7921 18.7866 80.2258 19.852 79.7459 20.6871C78.4117 22.9907 77.4038 24.8144 76.6455 24.8144C76.0408 24.8144 76.0408 22.9619 76.0408 21.2246C76.0408 19.7272 76.1464 17.4812 76.2424 15.1583C76.2712 14.3905 75.8873 13.9489 75.2442 13.5554C74.8506 13.3154 74.0155 12.8355 73.5356 12.8355C72.8061 12.8355 70.7233 12.9315 68.746 18.6522C68.4964 19.3721 68.0069 20.6871 68.0069 20.6871L68.0453 13.8145C68.0453 13.6514 67.9589 13.4978 67.7669 13.3922C67.431 13.2098 66.5479 12.8451 65.7512 12.8451C65.3769 12.8451 65.1849 13.0179 65.1849 13.373L65.0985 24.1233C65.0985 24.9392 65.1177 25.8895 65.2041 26.3118C65.2809 26.7245 65.4153 27.0701 65.5785 27.2717C65.7416 27.4732 65.924 27.6268 66.2312 27.694C66.5191 27.7516 68.0837 27.9531 68.1701 27.358C68.266 26.6382 68.2756 25.8607 69.0915 22.9619C70.3681 18.4506 72.0479 16.2526 72.8253 15.4751C72.9597 15.3407 73.1229 15.3311 73.1133 15.5519C73.0749 16.5405 72.9597 19.0073 72.8829 21.1094C72.6718 26.7245 73.6892 27.7708 75.1482 27.7708C76.2616 27.7708 77.8358 26.6573 79.5251 23.8546C80.5809 22.1077 81.5984 20.3895 82.3375 19.1513C82.8462 19.6216 83.4221 20.1304 83.998 20.6775C85.3322 21.9445 85.7737 23.1443 85.4762 24.2865C85.2554 25.16 84.4203 26.0526 82.9326 25.1792C82.5006 24.92 82.3087 24.728 81.8767 24.4401C81.6464 24.2865 81.2816 24.2385 81.0704 24.4017C80.5137 24.824 80.197 25.3615 80.0146 26.0142C79.8418 26.6573 80.4849 27.0029 81.1472 27.3004C81.7231 27.5596 82.9614 27.79 83.7484 27.8188C86.82 27.9243 89.2868 26.331 91.0049 22.242C91.3121 25.7743 92.6175 27.7804 94.8923 27.7804C96.4089 27.7804 97.935 25.8223 98.5973 23.893C98.7893 24.6801 99.0676 25.3615 99.4324 25.9375C101.179 28.7114 104.577 28.1163 106.276 25.7551C106.804 25.0256 106.881 24.7664 106.881 24.7664C107.13 26.9837 108.916 27.7612 109.943 27.7612C111.095 27.7612 112.275 27.2237 113.101 25.352C113.197 25.5535 113.302 25.7455 113.417 25.9279C115.164 28.7018 118.562 28.0971 120.261 25.7455C120.338 25.6399 120.415 25.5343 120.472 25.4479L120.52 26.9069C120.52 26.9069 119.551 27.7996 118.956 28.3467C116.326 30.7559 114.329 32.5892 114.185 34.7105C113.993 37.4269 116.201 38.4347 117.862 38.5691C119.628 38.7131 121.144 37.734 122.075 36.3614C122.891 35.1616 123.429 32.57 123.39 30.0072C123.371 28.9802 123.352 27.6844 123.333 26.283C124.254 25.208 125.291 23.8546 126.251 22.2708C127.297 20.5431 128.41 18.2203 128.986 16.4157C128.986 16.4157 129.956 16.4253 130.992 16.3582C131.328 16.339 131.424 16.4061 131.357 16.6461C131.28 16.9437 130.052 21.7045 131.175 24.8816C131.943 27.0509 133.689 27.7516 134.716 27.7516C135.926 27.7516 137.078 26.8397 137.702 25.4863C137.778 25.6399 137.855 25.7839 137.942 25.9183C139.689 28.6922 143.067 28.0875 144.785 25.7359C145.169 25.208 145.39 24.7472 145.39 24.7472C145.755 27.0509 147.55 27.7612 148.567 27.7612C149.633 27.7612 150.65 27.3196 151.466 25.3807C151.504 26.235 151.552 26.9357 151.639 27.1565C151.687 27.2908 151.994 27.4636 152.215 27.5404C153.194 27.9052 154.182 27.7324 154.557 27.6556C154.816 27.6076 155.008 27.3964 155.037 26.8685C155.104 25.4767 155.065 23.1443 155.488 21.4166C156.198 18.5082 156.851 17.3756 157.167 16.8189C157.34 16.5021 157.542 16.4541 157.551 16.7805C157.571 17.4524 157.599 19.4201 157.868 22.0597C158.07 24.0082 158.338 25.1504 158.54 25.5151C159.125 26.5518 159.855 26.5998 160.45 26.5998C160.824 26.5998 161.612 26.4942 161.544 25.8319C161.506 25.5055 161.573 23.5186 162.264 20.6487C162.715 18.777 163.474 17.0876 163.752 16.4733C163.858 16.243 163.896 16.4253 163.896 16.4637C163.838 17.7499 163.714 21.9637 164.232 24.2673C164.942 27.3868 167.006 27.742 167.716 27.742C169.242 27.742 170.5 26.5806 170.922 23.509C171.047 22.7987 170.893 22.2228 170.442 22.2228Z" fill="#94979E"/>
</g>
<defs>
<clipPath id="clip0_490_1347">
<rect width="117.946" height="33.4604" fill="white" transform="translate(53.0332 5.11719)"/>
</clipPath>
</defs>
</svg>
