<svg width="132" height="39" viewBox="0 0 132 39" fill="none" xmlns="http://www.w3.org/2000/svg">
<path d="M24.2359 13.5391C26.7325 15.3539 29.7909 16.4217 33.0941 16.4217V9.95783C32.469 9.95797 31.8454 9.89168 31.2338 9.75991V14.8479C27.9309 14.8479 24.8728 13.7801 22.3756 11.9654V25.1562C22.3756 31.7549 17.1152 37.1038 10.6266 37.1038C8.20553 37.1038 5.95525 36.3595 4.08594 35.083C6.21945 37.3013 9.19479 38.6775 12.4865 38.6775C18.9755 38.6775 24.2362 33.3285 24.2362 26.7296V13.5391H24.2359ZM26.5308 7.01788C25.2549 5.60043 24.4172 3.76863 24.2359 1.74349V0.912109H22.473C22.9168 3.48605 24.4303 5.68508 26.5308 7.01788ZM8.19 30.0193C7.47715 29.0689 7.09193 27.9062 7.09366 26.7107C7.09366 23.6927 9.49972 21.2457 12.4682 21.2457C13.0214 21.2455 13.5713 21.3317 14.0985 21.5018V14.8935C13.4824 14.8076 12.8606 14.7712 12.239 14.7845V19.9281C11.7114 19.758 11.1612 19.6716 10.6079 19.6721C7.63944 19.6721 5.2335 22.1189 5.2335 25.1373C5.2335 27.2715 6.43614 29.1192 8.19 30.0193Z" fill="#94979E"/>
<path d="M22.3746 11.9653C24.8719 13.7799 27.9299 14.8477 31.2328 14.8477V9.75978C29.3891 9.36042 27.757 8.38066 26.5298 7.01788C24.4292 5.68494 22.9158 3.48592 22.472 0.912109H17.8414V26.7293C17.8309 29.7391 15.429 32.1761 12.4669 32.1761C10.7214 32.1761 9.17071 31.33 8.18861 30.0193C6.43488 29.1192 5.23225 27.2714 5.23225 25.1374C5.23225 22.1193 7.63818 19.6723 10.6066 19.6723C11.1754 19.6723 11.7235 19.7623 12.2377 19.9282V14.7847C5.86309 14.9186 0.736328 20.2153 0.736328 26.7294C0.736328 29.9813 2.01301 32.9292 4.08508 35.0831C5.95439 36.3595 8.20467 37.1039 10.6257 37.1039C17.1145 37.1039 22.3748 31.7547 22.3748 25.1562V11.9653H22.3746Z" fill="#94979E"/>
<path d="M105.317 31.695C109.96 31.695 113.724 27.8964 113.724 23.2111C113.724 18.5258 109.96 14.7266 105.317 14.7266H104.051C108.694 14.7266 112.458 18.5257 112.458 23.2111C112.458 27.8964 108.694 31.695 104.051 31.695H105.317Z" fill="#94979E"/>
<path d="M103.934 14.7266H102.667C98.0244 14.7266 94.2598 18.5257 94.2598 23.2111C94.2598 27.8964 98.0244 31.695 102.667 31.695H103.934C99.2902 31.695 95.5262 27.8964 95.5262 23.2111C95.5261 18.5258 99.2902 14.7266 103.934 14.7266Z" fill="#94979E"/>
<path d="M40.0215 10.8916V15.192H44.9726V31.5786H49.9256V15.3081H53.9559L55.3378 10.8917L40.0215 10.8916ZM80.5581 10.8916V15.192H85.5092V31.5786H90.4623V15.3081H94.4924L95.8742 10.8917L80.5581 10.8916ZM56.2599 13.332C56.2599 11.9845 57.3409 10.8916 58.6763 10.8916C60.013 10.8916 61.0951 11.9845 61.0951 13.332C61.0951 14.6797 60.0137 15.7726 58.6763 15.7726C57.3409 15.7719 56.2599 14.6797 56.2599 13.332ZM56.2599 17.5164H61.0951V31.5786H56.2599V17.5164ZM63.1684 10.8916V31.5785H68.0055V26.2329L69.5027 24.8371L74.2237 31.6946H79.4055L72.6105 21.6999L78.7142 15.6558H72.8413L68.0055 20.5368V10.8916H63.1684ZM115.335 10.8916V31.5785H120.173V26.2329L121.67 24.8371L126.392 31.6946H131.574L124.779 21.6999L130.883 15.6558H125.01L120.173 20.5368V10.8916H115.335Z" fill="#94979E"/>
<path d="M104.049 31.695C108.692 31.695 112.457 27.8964 112.457 23.2111C112.457 18.5258 108.692 14.7266 104.049 14.7266H103.934C99.2913 14.7266 95.5273 18.5257 95.5273 23.2111C95.5273 27.8964 99.2913 31.695 103.934 31.695H104.049ZM99.9034 23.2111C99.9034 20.932 101.735 19.0859 103.993 19.0859C106.249 19.0859 108.08 20.932 108.08 23.2111C108.08 25.4901 106.249 27.3373 103.993 27.3373C101.735 27.3369 99.9034 25.4901 99.9034 23.2111Z" fill="#94979E"/>
</svg>
