<svg width="145" height="28" viewBox="0 0 145 28" fill="none" xmlns="http://www.w3.org/2000/svg">
<g clip-path="url(#clip0_490_1339)">
<path d="M34.2159 3.265C32.9693 3.81799 31.6294 4.19156 30.2234 4.35963C31.6585 3.49931 32.7609 2.13701 33.2799 0.513633C31.9365 1.31041 30.4489 1.88881 28.8653 2.20054C27.5974 0.849419 25.7907 0.00537109 23.7912 0.00537109C19.9521 0.00537109 16.8394 3.11778 16.8394 6.95683C16.8394 7.50168 16.9009 8.03231 17.0195 8.54107C11.2419 8.2512 6.11969 5.48355 2.69097 1.27771C2.09258 2.30439 1.74968 3.49847 1.74968 4.7725C1.74968 7.18436 2.97695 9.3121 4.84226 10.5587C3.70275 10.5226 2.63083 10.2099 1.6936 9.68923C1.69281 9.7182 1.69281 9.74734 1.69281 9.77665C1.69281 13.1447 4.08908 15.9542 7.26926 16.5932C6.68595 16.7522 6.0718 16.837 5.43783 16.837C4.98988 16.837 4.55448 16.7933 4.12992 16.7123C5.01462 19.4741 7.58184 21.4839 10.6239 21.5398C8.24478 23.4044 5.24741 24.5158 1.99031 24.5158C1.42919 24.5158 0.875869 24.4828 0.332031 24.4186C3.40852 26.3911 7.06257 27.542 10.9884 27.542C23.775 27.542 30.7674 16.9494 30.7674 7.76275C30.7674 7.46136 30.7606 7.16165 30.7473 6.86331C32.1053 5.88338 33.2839 4.65916 34.2159 3.265Z" fill="#94979E"/>
</g>
<g clip-path="url(#clip1_490_1339)">
<path d="M50.8962 21.7256C48.9727 21.2074 47.2075 19.7461 46.3044 17.9242C45.6123 16.528 45.6131 16.5378 45.6115 10.1209C45.5295 4.57008 45.5608 4.39097 45.9309 3.85563C46.7168 2.545 48.4499 2.26512 49.5862 3.26533C50.384 3.96756 50.4474 4.20603 50.4474 6.50374V8.49635H53.799C55.8492 8.49635 57.3459 8.53822 57.6534 8.60417C59.4025 8.97928 60.0665 11.071 58.8521 12.3802C58.709 12.5345 58.4142 12.7566 58.197 12.8738C57.8158 13.0795 57.6744 13.0879 54.1247 13.1171L50.4474 13.1473V14.0359C50.4474 15.3284 50.5814 15.7512 51.1813 16.3511C51.8819 17.0517 52.0689 17.0847 55.3531 17.0873C57.901 17.0892 58.1302 17.1039 58.5425 17.2905C60.1067 17.9986 60.4964 19.8839 59.343 21.1633C58.6688 21.9111 58.6243 21.9186 54.8898 21.9143C51.975 21.911 51.5012 21.8886 50.8962 21.7256ZM65.8215 21.768C64.3028 21.4 62.7354 20.2462 61.7773 18.7908C60.8945 17.4497 60.7224 16.506 60.7178 12.9814C60.7139 9.94178 60.775 9.55898 61.3597 8.95689C61.901 8.39958 62.2458 8.25513 63.0421 8.25216C63.6501 8.24976 63.8036 8.28834 64.2241 8.54832C64.5234 8.73332 64.8212 9.03101 65.0062 9.33002C65.3765 9.97189 65.3086 10.2411 65.3543 12.8814C65.4026 15.8864 65.4084 15.9575 65.6351 16.3221C66.4009 17.5538 67.9843 17.7353 69.0346 16.7118C69.641 16.1209 69.698 15.7737 69.698 12.6702C69.698 10.1182 69.7095 9.94639 69.9066 9.55367C70.3014 8.7669 70.8739 8.35045 71.7201 8.23447C72.6255 8.11036 73.602 8.64411 74.0698 9.51885C74.2784 9.90872 74.2909 10.0687 74.3379 12.9464C74.3211 15.3403 74.4337 16.0408 74.6596 16.3761C75.382 17.4668 76.9006 17.7015 77.8489 16.8689C78.5285 16.2721 78.5281 16.2741 78.584 12.9388C78.632 10.0759 78.6452 9.90771 78.8521 9.51885C79.7206 7.88674 81.9189 7.78386 82.8747 9.33061C83.493 10.1877 83.2223 12.0015 83.2223 13.1711C83.2672 14.7103 83.1769 16.6838 82.9078 17.2921C82.1756 19.3586 80.5448 21 78.5829 21.6451C77.693 21.9377 75.7319 22.0079 74.8482 21.7788C73.9964 21.5579 73.2591 21.2196 72.5576 20.7274L71.9686 20.3143L71.3797 20.7274C70.6676 21.2269 69.9468 21.5652 69.159 21.7697C68.4247 21.9603 66.6113 21.9594 65.8215 21.768ZM86.3249 21.7824C85.8752 21.5866 85.3135 21.0578 85.068 20.5991C84.8535 20.1981 84.8517 20.1538 84.8517 15.1107C84.8517 10.2577 84.8606 10.0088 85.0454 9.6359C85.8142 8.08555 87.7992 7.73661 89.0029 8.94026C89.7515 9.68884 89.7494 9.67032 89.7173 15.2702C89.6896 20.1035 89.6851 20.2022 89.4756 20.5897C89.1999 21.0997 88.6992 21.5762 88.2361 21.7694C87.7883 21.9562 86.7403 21.9633 86.3249 21.7824ZM96.6847 21.7268C94.4902 21.1515 92.5796 19.4178 91.7729 17.2697C91.3376 16.1104 91.3031 15.5198 91.3363 9.77974C91.3668 4.48529 91.3707 4.39313 91.5804 4.00454C92.6261 2.06675 95.4881 2.31206 96.1088 4.39267C96.2135 4.7437 96.254 5.38146 96.254 6.67883V8.47815L98.5987 8.51388C100.767 8.54692 100.973 8.56553 101.338 8.76075C103.054 9.6782 103.062 11.9545 101.352 12.868C100.969 13.0728 100.796 13.0886 98.5906 13.1193L96.2379 13.1521L96.2706 14.3042C96.3089 15.6486 96.462 16.0515 97.129 16.5629C97.7132 17.0107 98.081 17.0838 99.7587 17.0855C101.105 17.0868 101.285 17.1082 101.739 17.3194C103.635 18.2024 103.633 20.8758 101.735 21.7377C101.149 22.0042 97.7142 21.9967 96.6847 21.7268ZM109.253 21.7316C106.767 21.0516 104.726 18.9632 104.082 16.4407C103.924 15.8206 103.906 15.1947 103.906 10.1253C103.943 4.86323 103.682 5.06899 104.175 3.98602C104.742 2.90989 105.913 2.43571 107.153 2.77998C107.67 2.92351 108.54 3.79321 108.683 4.31012C108.743 4.52528 108.791 5.53539 108.791 6.59601L108.792 8.4964H110.802C113.105 8.4964 113.716 8.58169 114.271 8.98028C115.472 9.8433 115.499 11.7771 114.322 12.6297C113.735 13.0551 113.18 13.1363 110.86 13.1363H108.792V14.0304C108.792 15.2081 108.927 15.7032 109.393 16.2327C110.028 16.9546 110.264 17.0234 112.304 17.0827C114.08 17.1342 114.092 17.136 114.575 17.4342C115.128 17.7757 115.64 18.5304 115.739 19.1513C115.883 20.05 115.412 21.0619 114.6 21.5997L114.187 21.8731L112.057 21.8945C110.239 21.9128 109.828 21.889 109.253 21.7316ZM121.576 21.7762C120.133 21.3866 119.069 20.746 118.028 19.6395C116.764 18.2954 116.194 16.814 116.197 14.8822C116.2 13.7021 116.402 12.7796 116.872 11.8036C117.368 10.7726 117.913 10.1003 118.715 9.52783C121.051 7.86104 125.203 7.75689 127.818 9.29947C128.754 9.85166 129.728 10.8967 130.202 11.8587C131.161 13.8039 131.064 15.5658 129.967 16.1386C129.588 16.3367 129.411 16.3458 125.401 16.3725L121.231 16.4003V16.6593C121.231 17.063 121.873 17.6102 122.581 17.8088C123.063 17.9441 123.645 17.9738 125.828 17.9742C127.304 17.9742 128.645 18.0189 128.844 18.0739C130.543 18.546 130.884 20.7968 129.388 21.6731C128.904 22.0005 128.612 21.9182 125.516 21.916C122.95 21.9112 121.944 21.8755 121.576 21.7762ZM125.916 13.0129C125.73 12.39 125.197 12.0213 124.223 11.8411C123.187 11.6495 121.738 12.0782 121.458 12.6592C121.335 12.915 121.217 13.2062 121.217 13.2062C121.217 13.2062 122.08 13.235 123.61 13.235H125.982L125.916 13.0129ZM133.366 21.7325C132.857 21.456 132.315 20.814 132.186 20.3348C132.111 20.0546 132.087 18.9585 132.112 16.948C132.148 14.0194 132.152 13.9634 132.418 13.1645C133.119 11.0601 134.994 9.3146 137.174 8.73605C137.975 8.52336 141.675 8.42144 142.482 8.58982C143.603 8.82364 144.331 9.6885 144.331 10.7857C144.331 11.7214 143.906 12.4455 143.11 12.8665C142.735 13.0646 142.519 13.0857 140.382 13.1336C138.167 13.1833 138.046 13.1961 137.69 13.4171C137.221 13.7089 136.879 14.1588 136.74 14.6665C136.675 14.9047 136.632 16.0819 136.632 17.6334C136.631 20.2048 136.631 20.2056 136.374 20.7205C136.201 21.0682 135.969 21.3387 135.659 21.5533C135.256 21.8324 135.109 21.8744 134.459 21.8977C133.877 21.9185 133.643 21.8831 133.366 21.7325ZM86.2037 6.75985C84.6365 5.97889 84.3517 3.91628 85.6532 2.77354C86.1602 2.32837 86.5681 2.17822 87.2704 2.17822C88.2525 2.17822 89.0153 2.63706 89.4564 3.49303C90.511 5.53976 88.2707 7.78987 86.2037 6.75985Z" fill="#94979E"/>
</g>
<defs>
<clipPath id="clip0_490_1339">
<rect width="33.8839" height="27.5366" fill="white" transform="translate(0.332031 0.00537109)"/>
</clipPath>
<clipPath id="clip1_490_1339">
<rect width="98.7571" height="19.7552" fill="white" transform="translate(45.5742 2.17822)"/>
</clipPath>
</defs>
</svg>
