<svg width="129" height="30" viewBox="0 0 129 30" fill="none" xmlns="http://www.w3.org/2000/svg">
<path fill-rule="evenodd" clip-rule="evenodd" d="M36.7548 1.54364C38.5181 2.02387 39.9039 3.43369 40.3758 5.22769C41.2288 8.47609 41.2322 15.2576 41.2322 15.2576C41.2322 15.2576 41.2322 22.0392 40.3758 25.2876C39.9039 27.0816 38.5181 28.4914 36.7548 28.9716C33.5621 29.8429 20.7537 29.8429 20.7537 29.8429C20.7537 29.8429 7.94552 29.8429 4.75271 28.9716C2.98944 28.4914 1.60376 27.0816 1.13175 25.2876C0.275391 22.0392 0.275391 15.2576 0.275391 15.2576C0.275391 15.2576 0.275391 8.47609 1.13175 5.22769C1.60376 3.43369 2.98944 2.02387 4.75271 1.54364C7.94552 0.672363 20.7537 0.672363 20.7537 0.672363C20.7537 0.672363 33.5621 0.672363 36.7548 1.54364ZM27.2946 15.2577L16.6542 21.5075V9.00781L27.2946 15.2577Z" fill="#94979E"/>
<path d="M49.88 19.6384L45.2812 2.74121H49.2933L50.9049 10.4009C51.3162 12.2875 51.6163 13.8963 51.8118 15.2272H51.9298C52.0647 14.2736 52.3682 12.6751 52.8368 10.4283L54.5056 2.74121H58.5177L53.8617 19.6384V27.7441H49.8767V19.6384H49.88Z" fill="#94979E"/>
<path d="M59.7244 27.2086C58.9153 26.6529 58.3387 25.7884 57.9948 24.6153C57.6543 23.4423 57.4824 21.885 57.4824 19.9365V17.2849C57.4824 15.3194 57.678 13.7382 58.069 12.5479C58.4601 11.3576 59.0704 10.4863 59.8997 9.94092C60.7291 9.39552 61.8181 9.12109 63.1668 9.12109C64.4951 9.12109 65.5571 9.39894 66.3594 9.95464C67.1585 10.5103 67.7451 11.3816 68.116 12.5616C68.4868 13.745 68.6723 15.3194 68.6723 17.2849V19.9365C68.6723 21.885 68.4903 23.4491 68.1296 24.6291C67.7688 25.8125 67.1821 26.677 66.3729 27.2223C65.5638 27.7678 64.4647 28.0422 63.079 28.0422C61.6495 28.0455 60.5336 27.7643 59.7244 27.2086ZM64.2624 24.3479C64.4849 23.751 64.5996 22.7802 64.5996 21.4288V15.738C64.5996 14.4276 64.4884 13.4672 64.2624 12.8635C64.0365 12.2563 63.6421 11.9545 63.0756 11.9545C62.5295 11.9545 62.1418 12.2563 61.9193 12.8635C61.6934 13.4706 61.5821 14.4276 61.5821 15.738V21.4288C61.5821 22.7802 61.6899 23.7544 61.9058 24.3479C62.1216 24.9447 62.5092 25.2431 63.0756 25.2431C63.6421 25.2431 64.0365 24.9447 64.2624 24.3479Z" fill="#94979E"/>
<path d="M81.7235 27.7474H78.5611L78.2104 25.5109H78.1228C77.263 27.1985 75.9751 28.0423 74.2556 28.0423C73.0655 28.0423 72.1856 27.6444 71.6192 26.8521C71.0528 26.0562 70.7695 24.8146 70.7695 23.1269V9.47804H74.812V22.8867C74.812 23.7032 74.8996 24.2828 75.0749 24.6293C75.2503 24.9757 75.5436 25.1506 75.9548 25.1506C76.3055 25.1506 76.6427 25.0409 76.9664 24.8214C77.2901 24.6018 77.526 24.3239 77.6844 23.9879V9.47461H81.7235V27.7474Z" fill="#94979E"/>
<path d="M92.7035 6.05087H88.6915V27.7469H84.7367V6.05087H80.7246V2.74414H92.7035V6.05087Z" fill="#94979E"/>
<path d="M102.454 27.7474H99.2915L98.9409 25.5109H98.8533C97.9936 27.1985 96.7057 28.0423 94.9861 28.0423C93.796 28.0423 92.9161 27.6444 92.3497 26.8521C91.7833 26.0562 91.5 24.8146 91.5 23.1269V9.47804H95.5425V22.8867C95.5425 23.7032 95.6301 24.2828 95.8054 24.6293C95.9807 24.9757 96.274 25.1506 96.6855 25.1506C97.036 25.1506 97.3731 25.0409 97.6968 24.8214C98.0205 24.6018 98.2565 24.3239 98.4149 23.9879V9.47461H102.454V27.7474Z" fill="#94979E"/>
<path d="M115.833 12.3971C115.587 11.2446 115.192 10.411 114.646 9.89308C114.1 9.37513 113.348 9.11786 112.391 9.11786C111.649 9.11786 110.955 9.33052 110.311 9.7593C109.667 10.1881 109.168 10.7472 108.817 11.4435H108.787V1.81836H104.893V27.7439H108.23L108.642 26.0151H108.729C109.043 26.6325 109.511 27.1162 110.135 27.4764C110.759 27.8332 111.454 28.0115 112.215 28.0115C113.581 28.0115 114.589 27.3701 115.233 26.0905C115.877 24.8076 116.2 22.8078 116.2 20.0843V17.1926C116.2 15.1516 116.076 13.5497 115.833 12.3971ZM112.128 19.8509C112.128 21.1818 112.074 22.2247 111.966 22.9793C111.858 23.734 111.679 24.2726 111.423 24.5881C111.17 24.9071 110.826 25.0649 110.398 25.0649C110.064 25.0649 109.758 24.986 109.474 24.8248C109.191 24.667 108.962 24.4269 108.787 24.1113V13.7418C108.921 13.2444 109.158 12.8396 109.491 12.5206C109.822 12.2016 110.186 12.0438 110.573 12.0438C110.985 12.0438 111.302 12.2085 111.524 12.5344C111.75 12.8636 111.905 13.4125 111.993 14.1877C112.081 14.9629 112.124 16.064 112.124 17.4944V19.8509H112.128Z" fill="#94979E"/>
<path d="M121.936 20.9038C121.936 22.0769 121.969 22.9551 122.037 23.5417C122.104 24.1282 122.246 24.5537 122.462 24.8247C122.677 25.0921 123.008 25.2259 123.456 25.2259C124.06 25.2259 124.478 24.9858 124.7 24.509C124.926 24.0322 125.048 23.2365 125.068 22.1251L128.554 22.3342C128.574 22.492 128.584 22.7115 128.584 22.9894C128.584 24.6771 128.129 25.9394 127.222 26.773C126.315 27.6065 125.031 28.025 123.372 28.025C121.379 28.025 119.984 27.3903 119.185 26.1178C118.382 24.8452 117.984 22.8797 117.984 20.2177V17.0277C117.984 14.287 118.399 12.2837 119.228 11.0214C120.058 9.75909 121.477 9.12793 123.49 9.12793C124.876 9.12793 125.941 9.3852 126.683 9.90317C127.424 10.4211 127.947 11.2238 128.251 12.318C128.554 13.4123 128.706 14.9216 128.706 16.8493V19.9777H121.936V20.9038ZM122.448 12.294C122.242 12.5513 122.108 12.9732 122.037 13.5598C121.969 14.1463 121.936 15.0348 121.936 16.2285V17.5389H124.893V16.2285C124.893 15.0553 124.852 14.1669 124.775 13.5598C124.697 12.9526 124.555 12.5273 124.35 12.2769C124.144 12.0299 123.827 11.903 123.399 11.903C122.967 11.9064 122.65 12.0368 122.448 12.294Z" fill="#94979E"/>
</svg>
