<svg width="1062" height="325" viewBox="0 0 1062 325" fill="none" xmlns="http://www.w3.org/2000/svg">
<path d="M341.938 128.939H732.061M341.938 128.939V519.062M341.938 128.939L-15.9999 -229M732.061 128.939V519.062M732.061 128.939L1090 -229M732.061 519.062H341.938M732.061 519.062L1090 877M341.938 519.062L-15.9999 877M-15.9999 -229H1090M-15.9999 -229V877M1090 -229V877M1090 877H-15.9999M334.86 527.504H739.509M326.159 536.684H750.679M313.514 546.232H759.232V100.514M303.818 556.923H771.066M293.127 568.721H781.831M795.767 580.924H280.076V65.2322M230.048 630.915H843.915V17.0481M888.192 675.56H185.44V-27.1919M915.915 703.136H157.863L157.863 -54.9157M519.267 519.061L486.714 877M501.534 519.061L436.465 877M483.801 519.061L386.179 877M466.069 519.061L335.892 877M448.336 519.061L285.643 877M430.603 519.061L235.357 877M412.87 519.061L185.108 877M395.137 519.061L134.822 877M377.404 519.061L84.5355 877M359.671 519.061L34.2862 877M554.733 519.061L587.286 877M572.466 519.061L637.535 877M590.198 519.061L687.821 877M607.931 519.061L738.108 877M625.664 519.061L788.357 877M643.397 519.061L838.643 877M661.13 519.061L888.892 877M678.863 519.061L939.178 877M696.596 519.061L989.465 877M714.329 519.061L1039.71 877M537 519.061V877M333.496 526.139V121.491M324.316 534.84V110.32M314.768 547.486V101.768L760.486 101.768M304.076 557.182V89.9336M292.279 567.872V79.1679M230.085 630.952V17.085L843.952 17.0853M341.938 341.732L-16 374.286M341.938 359.465L-16 424.535M341.938 377.198L-16 474.821M341.938 394.931L-16 525.108M341.938 412.664L-16 575.356M341.938 430.397L-16 625.643M341.938 448.13L-16 675.892M341.938 465.863L-16 726.179M341.938 483.595L-16 776.464M341.938 501.328L-16 826.713M341.938 306.267L-16 273.713M341.938 288.534L-16 223.465M341.938 270.801L-16 173.178M341.938 253.068L-16 122.892M341.938 235.335L-16 72.6425M341.938 217.603L-16 22.3567M341.938 199.869L-16 -27.893M341.938 182.137L-16 -78.1788M341.938 164.403L-16 -128.465M341.938 146.671L-16 -178.714M341.938 324H-16M739.14 120.496H334.491M747.84 111.317H323.321M770.182 91.0769H302.934M780.873 79.2798H292.169M278.233 67.0767H793.924V582.767M185.808 -27.5606H888.56V675.191M158.085 -55.1368H916.137L916.137 702.915M554.733 128.939L587.286 -229M572.466 128.939L637.535 -229M590.198 128.939L687.821 -229M607.931 128.939L738.108 -229M625.664 128.939L788.357 -229M643.397 128.939L838.643 -229M661.13 128.939L888.892 -229M678.863 128.939L939.178 -229M696.596 128.939L989.465 -229M714.329 128.939L1039.71 -229M519.267 128.939L486.714 -229M501.534 128.939L436.465 -229M483.801 128.939L386.179 -229M466.069 128.939L335.892 -229M448.336 128.939L285.643 -229M430.603 128.939L235.357 -229M412.87 128.939L185.108 -229M395.137 128.939L134.822 -229M377.404 128.939L84.5355 -229M359.671 128.939L34.2862 -229M537 128.939V-229M740.504 121.86V526.508M749.684 113.159V537.679M769.924 90.8184V558.067M781.721 80.1265V568.831M732.061 306.267L1090 273.713M732.061 288.534L1090 223.465M732.061 270.801L1090 173.178M732.061 253.068L1090 122.892M732.061 235.335L1090 72.6425M732.061 217.603L1090 22.3567M732.061 199.869L1090 -27.893M732.061 182.137L1090 -78.1788M732.061 164.403L1090 -128.465M732.061 146.671L1090 -178.714M732.061 341.732L1090 374.286M732.061 359.465L1090 424.535M732.061 377.198L1090 474.821M732.061 394.931L1090 525.108M732.061 412.664L1090 575.356M732.061 430.397L1090 625.643M732.061 448.13L1090 675.892M732.061 465.863L1090 726.179M732.061 483.595L1090 776.464M732.061 501.328L1090 826.713M732.061 324H1090M264.703 596.297H809.297V51.7027L264.703 51.7024V596.297ZM248.408 612.591H825.592V35.4079L248.408 35.4077L248.408 612.591ZM209.292 651.707H864.708V-3.70712L209.292 -3.70826L209.292 651.707ZM125.568 735.431H948.432V-87.4321L125.568 -87.4323L125.568 735.431ZM87.3005 773.7H986.7V-125.699L87.3003 -125.7L87.3005 773.7ZM41.1433 819.857H1032.86V-171.856L41.1433 -171.857L41.1433 819.857Z" stroke="url(#paint0_linear_486_4461)" stroke-miterlimit="10"/>
<defs>
<linearGradient id="paint0_linear_486_4461" x1="537" y1="37.4008" x2="537" y2="247.574" gradientUnits="userSpaceOnUse">
<stop stop-color="#172339"/>
<stop offset="1" stop-color="#172339" stop-opacity="0"/>
</linearGradient>
</defs>
</svg>