<svg width="128" height="31" viewBox="0 0 128 31" fill="none" xmlns="http://www.w3.org/2000/svg">
<g clip-path="url(#clip0_683_2385)">
<path d="M7.67844 8.70598C7.27597 8.72251 6.89849 8.88138 6.89849 8.88138C6.68158 8.975 6.5117 9.08812 6.39858 9.172L2.38574 13.1848C0.967774 14.6028 0.967774 16.902 2.38574 18.3204L5.89232 21.8269C6.24098 22.1756 6.66929 22.4374 7.14379 22.5709C7.5416 22.6831 8.00677 22.7247 8.45965 22.5539C8.91847 22.3811 9.18537 22.0583 9.44041 21.7278C9.44041 21.7278 10.9274 19.7976 12.2026 17.1189L3.0585 15.7009L12.2674 14.3211C11.7485 13.5187 11.2265 12.6803 10.7059 11.805C10.2144 10.9797 9.75264 10.1689 9.31755 9.37578C9.21333 9.2813 8.52193 8.67167 7.67844 8.70598Z" fill="#0584FE"/>
<path d="M7.67844 8.70598C7.27597 8.72251 6.89849 8.88138 6.89849 8.88138C6.68158 8.975 6.5117 9.08812 6.39858 9.172L2.38574 13.1848C0.967774 14.6028 0.967774 16.902 2.38574 18.3204L5.89232 21.8269C6.24098 22.1756 6.66929 22.4374 7.14379 22.5709C7.5416 22.6831 8.00677 22.7247 8.45965 22.5539C8.91847 22.3811 9.18537 22.0583 9.44041 21.7278C9.44041 21.7278 10.9274 19.7976 12.2026 17.1189L3.0585 15.7009L12.2674 14.3211C11.7485 13.5187 11.2265 12.6803 10.7059 11.805C10.2144 10.9797 9.75264 10.1689 9.31755 9.37578C9.21333 9.2813 8.52193 8.67167 7.67844 8.70598Z" fill="url(#paint0_radial_683_2385)"/>
<path d="M13.4399 2.12912L9.53382 6.0352C9.44994 6.14832 9.33682 6.3182 9.24319 6.53511C9.24319 6.53511 9.08432 6.91301 9.0678 7.31506C9.03348 8.15855 9.64312 8.84995 9.7376 8.9546C10.5307 9.38926 11.3411 9.85147 12.1668 10.3429C13.0421 10.8636 13.8805 11.3855 14.6829 11.9045L16.1089 2.77647L17.5476 11.8075C20.1917 10.5391 22.0896 9.07703 22.0896 9.07703C22.4205 8.82242 22.7429 8.55509 22.9157 8.09628C23.2568 7.19051 22.7497 6.23686 22.526 5.86659L18.7881 2.12912C17.3112 0.652271 14.9168 0.652271 13.4399 2.12912Z" fill="white"/>
<path d="M26.2911 9.63036C25.9425 9.28169 25.5142 9.01988 25.0397 8.88642C24.6419 8.77416 24.1767 8.73264 23.7238 8.90337C23.265 9.07622 22.9981 9.39905 22.7431 9.72949C22.7431 9.72949 21.256 11.6597 19.9808 14.3384L29.0822 15.7488L19.916 17.1362C20.435 17.9386 20.9569 18.777 21.4776 19.6523C21.875 20.3204 22.2537 20.9787 22.6138 21.6257C22.8939 22.129 23.3544 22.5136 23.9077 22.6742C24.0928 22.728 24.294 22.7598 24.505 22.7509C24.9075 22.7344 25.285 22.5755 25.285 22.5755C25.5019 22.4819 25.6718 22.3688 25.7849 22.2849L28.631 19.4388C30.6933 17.3764 30.6933 14.033 28.631 11.9706L26.2911 9.63036Z" fill="#0584FE"/>
<path d="M26.2911 9.63036C25.9425 9.28169 25.5142 9.01988 25.0397 8.88642C24.6419 8.77416 24.1767 8.73264 23.7238 8.90337C23.265 9.07622 22.9981 9.39905 22.7431 9.72949C22.7431 9.72949 21.256 11.6597 19.9808 14.3384L29.0822 15.7488L19.916 17.1362C20.435 17.9386 20.9569 18.777 21.4776 19.6523C21.875 20.3204 22.2537 20.9787 22.6138 21.6257C22.8939 22.129 23.3544 22.5136 23.9077 22.6742C24.0928 22.728 24.294 22.7598 24.505 22.7509C24.9075 22.7344 25.285 22.5755 25.285 22.5755C25.5019 22.4819 25.6718 22.3688 25.7849 22.2849L28.631 19.4388C30.6933 17.3764 30.6933 14.033 28.631 11.9706L26.2911 9.63036Z" fill="url(#paint1_radial_683_2385)"/>
<path d="M26.2911 9.63036C25.9425 9.28169 25.5142 9.01988 25.0397 8.88642C24.6419 8.77416 24.1767 8.73264 23.7238 8.90337C23.265 9.07622 22.9981 9.39905 22.7431 9.72949C22.7431 9.72949 21.256 11.6597 19.9808 14.3384L29.0822 15.7488L19.916 17.1362C20.435 17.9386 20.9569 18.777 21.4776 19.6523C21.875 20.3204 22.2537 20.9787 22.6138 21.6257C22.8939 22.129 23.3544 22.5136 23.9077 22.6742C24.0928 22.728 24.294 22.7598 24.505 22.7509C24.9075 22.7344 25.285 22.5755 25.285 22.5755C25.5019 22.4819 25.6718 22.3688 25.7849 22.2849L28.631 19.4388C30.6933 17.3764 30.6933 14.033 28.631 11.9706L26.2911 9.63036Z" fill="url(#paint2_radial_683_2385)"/>
<path d="M20.014 21.1138C19.1387 20.5932 18.3003 20.0712 17.4979 19.5522L16.1723 28.6565L14.7001 19.6175C12.3446 20.7389 10.5682 22.0238 10.1738 22.3179C10.1196 22.3581 10.0912 22.3801 10.0912 22.3801C10.0726 22.3945 10.0539 22.4089 10.0353 22.4233C9.62985 22.7648 8.55716 23.9332 9.94209 25.8778C11.0504 26.9861 12.1582 28.0939 13.2665 29.2022C14.8128 30.7485 17.32 30.7485 18.8663 29.2022L22.4814 25.5872C22.6589 25.4097 22.8067 25.205 22.9126 24.9775C22.9211 24.9593 22.9296 24.9407 22.9376 24.922C22.9376 24.922 23.0965 24.5441 23.113 24.1421C23.1473 23.2986 22.5377 22.6072 22.4432 22.5026C21.6502 22.067 20.8393 21.6053 20.014 21.1138Z" fill="white"/>
<path d="M20.014 21.1138C19.1387 20.5932 18.3003 20.0712 17.4979 19.5522L16.1723 28.6565L14.7001 19.6175C12.3446 20.7389 10.5682 22.0238 10.1738 22.3179C10.1196 22.3581 10.0912 22.3801 10.0912 22.3801C10.0726 22.3945 10.0539 22.4089 10.0353 22.4233C9.62985 22.7648 8.55716 23.9332 9.94209 25.8778C11.0504 26.9861 12.1582 28.0939 13.2665 29.2022C14.8128 30.7485 17.32 30.7485 18.8663 29.2022L22.4814 25.5872C22.6589 25.4097 22.8067 25.205 22.9126 24.9775C22.9211 24.9593 22.9296 24.9407 22.9376 24.922C22.9376 24.922 23.0965 24.5441 23.113 24.1421C23.1473 23.2986 22.5377 22.6072 22.4432 22.5026C21.6502 22.067 20.8393 21.6053 20.014 21.1138Z" fill="white"/>
<path d="M112.362 13.6656C112.818 12.7971 113.448 12.1458 114.273 11.6681C115.098 11.1905 116.032 10.9517 117.096 10.9517C118.159 10.9517 119.093 11.1688 119.918 11.603C120.743 12.0372 121.373 12.6668 121.85 13.4484C122.328 14.2518 122.567 15.1853 122.588 16.2492C122.588 16.5531 122.567 16.8354 122.523 17.1393H114.143V17.2696C114.186 18.2466 114.49 19.0065 115.055 19.571C115.597 20.1355 116.336 20.4177 117.248 20.4177C117.964 20.4177 118.572 20.2657 119.071 19.9184C119.549 19.571 119.875 19.0933 120.048 18.4637H122.393C122.176 19.5927 121.633 20.5263 120.743 21.2427C119.853 21.9809 118.746 22.3283 117.421 22.3283C116.249 22.3283 115.25 22.1112 114.382 21.6335C113.513 21.1559 112.862 20.5046 112.384 19.6361C111.907 18.7894 111.689 17.7907 111.689 16.6617C111.689 15.5327 111.907 14.534 112.362 13.6656ZM120.2 15.4242C120.092 14.6208 119.766 13.9912 119.223 13.5353C118.68 13.0794 118.007 12.8405 117.182 12.8405C116.401 12.8405 115.749 13.0794 115.185 13.557C114.62 14.0346 114.317 14.6426 114.23 15.4242H120.2Z" fill="white"/>
<path d="M111.795 11.0815V13.2744H110.753C109.776 13.2744 109.081 13.6 108.647 14.2297C108.212 14.8593 107.995 15.6626 107.995 16.6179V22.1976H105.65V11.0815H107.735L107.995 12.7533C108.299 12.2322 108.712 11.8414 109.233 11.5375C109.732 11.2335 110.405 11.0815 111.274 11.0815H111.795Z" fill="white"/>
<path d="M105.026 20.1572V22.198H103.788C103.05 22.198 102.529 22.0461 102.225 21.7421C101.899 21.4381 101.747 21.0039 101.747 20.4177C100.901 21.6987 99.6849 22.3283 98.0782 22.3283C96.819 22.3283 95.8203 22.0461 95.0821 21.4599C94.3222 20.8954 93.9531 20.092 93.9531 19.0716C93.9531 17.9426 94.3439 17.0525 95.1689 16.4446C95.9723 15.8367 97.1447 15.511 98.7079 15.511H101.509V14.838C101.509 14.23 101.291 13.7307 100.857 13.3833C100.423 13.0359 99.8151 12.8405 99.0552 12.8405C98.3605 12.8405 97.796 12.9925 97.3618 13.2965C96.9276 13.6004 96.667 13.9912 96.5802 14.4689H94.2788C94.3873 13.3616 94.8867 12.4931 95.7551 11.8852C96.6236 11.2773 97.7526 10.9517 99.1638 10.9517C100.64 10.9517 101.791 11.299 102.616 11.9938C103.419 12.6886 103.832 13.6873 103.832 14.9899V19.3756C103.832 19.8966 104.071 20.1572 104.57 20.1572H105.026ZM101.509 17.2479H98.5993C97.8611 17.2479 97.3184 17.3999 96.9276 17.6821C96.5368 17.9644 96.3413 18.3769 96.3413 18.9196C96.3413 19.3973 96.515 19.7881 96.8841 20.0703C97.2532 20.3743 97.7526 20.5046 98.4039 20.5046C99.3592 20.5046 100.119 20.244 100.662 19.723C101.205 19.2019 101.487 18.5071 101.509 17.6387V17.2479Z" fill="white"/>
<path d="M90.3945 7H92.7393V22.1978H90.3945V7Z" fill="white"/>
<path d="M84.5339 11.0817V9.97443C84.5339 8.99742 84.7727 8.25925 85.2937 7.75989C85.7931 7.26053 86.5747 7 87.6385 7H89.8965V9.06256H87.9642C87.5734 9.06256 87.3129 9.1494 87.1392 9.32309C86.9655 9.49678 86.9004 9.77903 86.9004 10.1481V11.0817H89.8748V13.1443H86.9004V22.1978H84.5339V13.1443H82.6016V11.0817H84.5339Z" fill="white"/>
<path d="M81.1924 12.1458C81.9523 12.9274 82.3431 14.1866 82.3431 15.9235V22.198H79.9983V15.9452C79.9983 14.9899 79.8029 14.2518 79.4121 13.7307C79.0213 13.2313 78.4351 12.9708 77.6752 12.9708C76.8502 12.9708 76.2206 13.2748 75.7429 13.8392C75.2653 14.4037 75.0482 15.1853 75.0482 16.184V22.198H72.6817V15.9452C72.6817 14.9682 72.4645 14.23 72.0737 13.7307C71.6829 13.2313 71.0967 12.9708 70.3369 12.9708C69.5335 12.9708 68.9039 13.2748 68.4263 13.861C67.9486 14.4689 67.7315 15.2505 67.7315 16.2492V22.198H65.3867V11.0819H67.4276L67.6881 12.5366C68.4697 11.4944 69.5553 10.9734 70.9448 10.9517C71.7264 10.9517 72.3994 11.1253 73.0073 11.451C73.5935 11.7984 74.0495 12.2977 74.3751 12.9708C74.7659 12.3412 75.2653 11.8418 75.9166 11.4944C76.5462 11.1471 77.3061 10.9517 78.218 10.9517C79.4338 10.9517 80.4108 11.3642 81.1924 12.1458Z" fill="white"/>
<path d="M62.7627 12.1458C63.5226 12.9274 63.9134 14.1866 63.9134 15.9235V22.198H61.5686V15.9452C61.5686 14.9899 61.3732 14.2518 60.9824 13.7307C60.5916 13.2313 60.0054 12.9708 59.2455 12.9708C58.4205 12.9708 57.7909 13.2748 57.3132 13.8392C56.8356 14.4037 56.6185 15.1853 56.6185 16.184V22.198H54.252V15.9452C54.252 14.9682 54.0349 14.23 53.6441 13.7307C53.2533 13.2313 52.6671 12.9708 51.9072 12.9708C51.1039 12.9708 50.4742 13.2748 49.9966 13.861C49.5189 14.4689 49.3018 15.2505 49.3018 16.2492V22.198H46.957V11.0819H48.9979L49.2584 12.5366C50.04 11.4944 51.1256 10.9734 52.5151 10.9517C53.2967 10.9517 53.9697 11.1253 54.5776 11.451C55.1638 11.7984 55.6198 12.2977 55.9454 12.9708C56.3362 12.3412 56.8356 11.8418 57.4869 11.4944C58.1166 11.1471 58.8764 10.9517 59.7883 10.9517C61.0041 10.9517 61.9811 11.3642 62.7627 12.1458Z" fill="white"/>
<path d="M38.258 18.5281C38.3014 19.1143 38.5619 19.5919 39.0613 19.961C39.5606 20.3301 40.212 20.5038 41.0153 20.5038C41.71 20.5038 42.2962 20.3735 42.7305 20.113C43.1647 19.8525 43.4035 19.4834 43.4035 19.0275C43.4035 18.6584 43.2949 18.3761 43.0995 18.1807C42.8824 18.007 42.6219 17.8768 42.2745 17.7899C41.9271 17.7031 41.4061 17.6162 40.7113 17.5294C39.7343 17.4208 38.931 17.2689 38.3014 17.0735C37.6718 16.8781 37.1724 16.5741 36.7816 16.1399C36.3908 15.7056 36.2171 15.1412 36.2171 14.403C36.2171 13.7299 36.3908 13.122 36.7816 12.601C37.1724 12.0799 37.6935 11.6674 38.3665 11.3634C39.0396 11.0812 39.7994 10.9292 40.6679 10.9292C42.0574 10.9292 43.2081 11.2549 44.0765 11.8628C44.945 12.4924 45.4226 13.3608 45.5095 14.4898H43.2298C43.1647 13.9905 42.9041 13.578 42.4699 13.2523C42.014 12.9266 41.4495 12.7529 40.7765 12.7529C40.0817 12.7529 39.5389 12.8832 39.1264 13.1437C38.6922 13.4043 38.4968 13.7734 38.4968 14.2076C38.4968 14.555 38.5836 14.7938 38.8007 14.9675C39.0178 15.1412 39.2784 15.2497 39.604 15.3149C39.908 15.38 40.4291 15.4451 41.1455 15.532C42.1008 15.6405 42.9041 15.7925 43.5555 16.0096C44.2068 16.2267 44.7279 16.5524 45.1187 17.0083C45.5095 17.4643 45.7049 18.0722 45.7049 18.8538C45.7049 19.5485 45.4878 20.1781 45.097 20.6992C44.6845 21.2203 44.12 21.6328 43.4252 21.915C42.7087 22.1973 41.9054 22.3275 41.037 22.3275C39.5389 22.3275 38.3231 22.0019 37.4112 21.3288C36.4994 20.6558 36.0217 19.7222 36 18.5281H38.258Z" fill="white"/>
</g>
<defs>
<radialGradient id="paint0_radial_683_2385" cx="0" cy="0" r="1" gradientUnits="userSpaceOnUse" gradientTransform="translate(1.87083 17.1448) rotate(-23.7204) scale(11.2362 8.80699)">
<stop stop-color="#02E1FF" stop-opacity="0.928085"/>
<stop offset="1" stop-color="#069EDF"/>
</radialGradient>
<radialGradient id="paint1_radial_683_2385" cx="0" cy="0" r="1" gradientUnits="userSpaceOnUse" gradientTransform="translate(25.4432 22.9061) rotate(-90) scale(12.9075 9.48545)">
<stop stop-color="#02E1FF" stop-opacity="0.928085"/>
<stop offset="0.525067" stop-color="#069EDF"/>
</radialGradient>
<radialGradient id="paint2_radial_683_2385" cx="0" cy="0" r="1" gradientUnits="userSpaceOnUse" gradientTransform="translate(20.4303 17.2286) rotate(-25.11) scale(10.6512 8.71035)">
<stop stop-color="#02E1FF" stop-opacity="0.928085"/>
<stop offset="1" stop-color="#069EDF"/>
</radialGradient>
<clipPath id="clip0_683_2385">
<rect width="128" height="31" fill="white"/>
</clipPath>
</defs>
</svg>